<svg width="92" height="89" viewBox="0 0 92 89" fill="none" xmlns="http://www.w3.org/2000/svg">
<g clip-path="url(#clip0_4_163)">
<path d="M79.5936 37.4928C79.1433 38.7833 79.0758 40.1643 79.6387 41.3869C80.6969 43.6057 83.3538 44.3981 85.4703 45.666C89.343 47.998 91.6847 52.5261 91.437 57.0315C91.0993 62.9634 86.2583 68.3292 80.4042 69.2122C73.6269 70.231 66.9847 65.8387 60.1849 66.5406C55.2765 67.0387 50.8858 70.5027 48.9044 74.9855C46.6303 80.1249 43.5682 83.8153 38.2995 86.4416C31.8149 89.6792 23.8893 89.8603 17.2696 86.8944C12.7214 84.8568 8.66852 81.2116 7.18247 76.4345C4.34547 67.2651 13.7796 62.3068 16.2564 54.4279C19.5887 43.8321 10.3572 32.625 12.7214 21.7802C14.0498 15.7352 19.4086 11.0033 25.3528 9.80336C28.3474 9.19207 31.0268 9.41848 33.9764 8.51285C38.322 7.15442 42.7576 6.06767 47.1257 4.86773C60.4776 1.17732 77.7023 -5.22996 88.1947 7.69779C93.8912 14.7164 93.3058 25.8555 85.808 31.244C84.0518 32.5118 82.183 33.6439 80.832 35.3193C80.3141 35.9532 79.8863 36.7003 79.6161 37.4701L79.5936 37.4928Z" fill="#F7D280"/>
<path d="M84.1644 51.96C83.1962 51.96 82.2505 52.028 81.2598 51.6204C80.4492 51.2808 79.436 51.4393 78.5129 51.3035C78.0626 51.2355 77.6122 51.0771 77.207 50.8733C76.3063 50.4205 76.1037 49.5601 76.7791 48.8809C77.4771 48.1791 78.2652 47.5678 79.391 47.7036C79.8863 47.7715 80.4267 47.7036 80.9221 47.5904C82.4757 47.2055 84.0293 47.4093 85.5829 47.6131C86.5736 47.7489 87.0914 48.4508 87.3166 49.3564C87.5643 50.3752 87.1139 51.1903 86.3709 51.8468C86.1683 52.0053 85.8305 52.0732 85.5604 52.0732C85.0875 52.0732 84.6372 52.0053 84.1644 51.9827V51.96Z" fill="white"/>
<path d="M56.0871 57.4844C56.8301 57.5523 57.5957 57.5749 58.3162 57.7108C58.9691 57.824 59.5095 58.1862 59.7572 58.8654C60.2751 60.2465 59.2393 61.2201 58.1135 61.4012C57.5506 61.4918 56.9427 61.4012 56.3798 61.3559C54.8037 61.2427 53.2501 61.1521 51.6965 60.971C50.8409 60.8805 49.9853 60.6541 49.1747 60.3824C48.5893 60.2012 48.4092 59.6352 48.7244 59.0919C48.927 58.7522 49.2198 58.4353 49.5575 58.2768C49.9628 58.073 50.4356 57.9598 50.8859 57.9372C52.6197 57.8013 54.3534 57.7108 56.0871 57.5976C56.0871 57.5523 56.0871 57.507 56.0871 57.4617V57.4844Z" fill="white"/>
<path d="M38.6372 58.707C40.0107 58.639 41.0914 59.3862 41.6093 60.6767C41.7669 61.0842 41.7669 61.4691 41.4967 61.8314C40.9338 62.5785 40.2358 63.0992 39.2677 62.8728C38.5246 62.6917 37.7816 62.8275 37.0611 62.7823C36.3181 62.737 35.575 62.6011 34.832 62.4879C34.044 62.3521 33.2334 62.2389 32.4453 62.0578C31.7023 61.8993 31.4096 61.3786 31.6122 60.6088C31.7473 60.1107 32.0626 59.7711 32.5129 59.6126C33.1658 59.3635 33.8188 59.0919 34.4943 59.0013C35.8678 58.8428 37.2412 58.7975 38.6372 58.6843V58.707Z" fill="white"/>
<path d="M62.977 51.5752C62.1214 51.5299 61.2433 51.5073 60.3877 51.4167C59.9824 51.3714 59.5771 51.2582 59.2394 51.0771C58.5188 50.7375 58.4063 49.8998 58.9692 49.3338C59.1718 49.13 59.4195 48.9262 59.6897 48.8583C60.7479 48.5414 61.8062 48.2697 62.8869 48.0206C63.3823 47.9074 63.9001 47.8169 64.418 47.7263C65.7239 47.4999 66.9398 47.7037 68.0881 48.3602C68.5384 48.6319 68.7185 49.0168 68.651 49.5375C68.5159 50.5564 67.8855 51.2582 66.8272 51.3035C65.5663 51.3488 64.3054 51.8695 63.022 51.5525L62.977 51.5752Z" fill="white"/>
<path d="M48.3416 48.0885C49.2423 48.0432 49.9403 48.4055 50.4806 49.0847C51.0435 49.7865 50.9535 50.6695 50.2555 51.2808C49.6926 51.7563 49.0396 51.96 48.3191 51.9148C46.9907 51.8242 45.6622 51.7336 44.3338 51.5978C43.6133 51.5299 43.0729 51.0997 43.0054 50.6469C42.9153 50.1035 43.3431 49.4696 43.9961 49.1526C44.0411 49.13 44.1086 49.0847 44.1537 49.0847C45.5497 48.7677 46.9682 48.4281 48.3416 48.1111V48.0885Z" fill="white"/>
<path d="M20.737 61.1974C19.4761 60.971 18.2153 60.7672 16.9769 60.4955C16.459 60.3823 15.8961 60.1107 15.8961 59.4994C15.8961 58.8654 16.3239 58.4353 16.9093 58.1862C17.0669 58.1183 17.2471 58.0504 17.4047 58.0277C18.8457 57.8692 20.2867 57.6881 21.7277 57.5749C22.3807 57.5296 22.9661 57.8466 23.4389 58.3221C23.9793 58.8654 24.0244 59.6578 23.4615 60.2012C23.0111 60.654 22.4933 61.0616 21.7953 61.0163C21.4575 61.0163 21.0973 61.0163 20.737 61.0163C20.737 61.0616 20.737 61.1068 20.737 61.1748V61.1974Z" fill="white"/>
<path d="M72.3886 38.2172C73.1316 38.2851 73.8971 38.3078 74.6176 38.4436C75.2706 38.5568 75.811 38.9191 76.0586 39.5983C76.5765 40.9794 75.5408 41.9529 74.415 42.134C73.8521 42.2246 73.2442 42.134 72.6813 42.0888C71.1051 41.9755 69.5515 41.885 67.998 41.7039C67.1423 41.6133 66.2867 41.3869 65.4537 41.1152C64.8682 40.9341 64.6881 40.3681 65.0033 39.8247C65.206 39.4851 65.4987 39.1681 65.8364 39.0096C66.2417 38.8059 66.7145 38.6927 67.1649 38.67C68.8986 38.5342 70.6323 38.4436 72.366 38.3304C72.366 38.2851 72.366 38.2399 72.366 38.1946L72.3886 38.2172Z" fill="white"/>
<path d="M54.9387 39.4398C56.3122 39.3719 57.393 40.119 57.9108 41.4095C58.0684 41.8171 58.0684 42.202 57.7982 42.5642C57.2353 43.3113 56.5374 43.8321 55.5692 43.6057C54.8261 43.4246 54.0831 43.5604 53.3626 43.5151C52.6196 43.4698 51.8766 43.334 51.1335 43.2208C50.3455 43.0849 49.5349 42.9717 48.7468 42.7906C48.0038 42.6321 47.7111 42.1114 47.9138 41.3416C48.0489 40.8435 48.3641 40.5039 48.8144 40.3454C49.4674 40.0964 50.1203 39.8247 50.7958 39.7341C52.1693 39.5757 53.5427 39.5304 54.9387 39.4172V39.4398Z" fill="white"/>
<path d="M37.0611 41.9303C35.8002 41.7039 34.5394 41.5001 33.301 41.2285C32.7831 41.1152 32.2202 40.8436 32.2202 40.2323C32.2202 39.5983 32.648 39.1682 33.2334 38.9191C33.391 38.8512 33.5712 38.7833 33.7288 38.7606C35.1698 38.6022 36.6108 38.421 38.0518 38.3078C38.7048 38.2625 39.2902 38.5795 39.763 39.055C40.3034 39.5983 40.3485 40.3908 39.7856 40.9341C39.3352 41.3869 38.8174 41.7945 38.1194 41.7492C37.7816 41.7492 37.4214 41.7492 37.0611 41.7492C37.0611 41.7945 37.0611 41.8397 37.0611 41.9077V41.9303Z" fill="white"/>
<path d="M27.4919 48.0432C28.0773 48.1111 28.37 48.1111 28.6627 48.1791C29.4283 48.3828 29.9011 48.9941 29.8561 49.6733C29.7885 50.6016 29.2481 51.3261 28.37 51.2808C27.3343 51.2355 26.3211 51.0091 25.2853 50.8506C25.1277 50.828 24.9701 50.6922 24.8575 50.579C24.1145 49.9224 24.182 48.9488 25.1052 48.6319C25.9608 48.3149 26.884 48.2017 27.5144 48.0432H27.4919Z" fill="white"/>
<path d="M59.8248 30.6779C58.8566 30.6779 57.9109 30.7459 56.9202 30.3383C56.1096 29.9987 55.0964 30.1572 54.1733 30.0214C53.723 29.9534 53.2726 29.795 52.8673 29.5912C51.9667 29.1384 51.7641 28.278 52.4395 27.5988C53.1375 26.897 53.9256 26.2857 55.0514 26.4215C55.5467 26.4894 56.0871 26.4215 56.5825 26.3083C58.1361 25.9234 59.6897 26.1272 61.2433 26.331C62.234 26.4668 62.7518 27.1687 62.977 28.0743C63.2247 29.0931 62.7743 29.9082 62.0313 30.5647C61.8287 30.7232 61.4909 30.7911 61.2208 30.7911C60.7479 30.7911 60.2976 30.7232 59.8248 30.7006V30.6779Z" fill="white"/>
<path d="M38.6373 30.2704C37.7817 30.2252 36.9035 30.2025 36.0479 30.112C35.6427 30.0667 35.2374 29.9535 34.8996 29.7723C34.1791 29.4327 34.0665 28.595 34.6294 28.029C34.8321 27.8253 35.0798 27.6215 35.3499 27.5536C36.4082 27.2366 37.4664 26.9649 38.5472 26.7159C39.0426 26.6027 39.5604 26.5121 40.0783 26.4215C41.3842 26.1951 42.6001 26.3989 43.7484 27.0555C44.1987 27.3272 44.3788 27.7121 44.3113 28.2328C44.1762 29.2516 43.5457 29.9535 42.4875 29.9987C41.2266 30.044 39.9657 30.5648 38.6823 30.2478L38.6373 30.2704Z" fill="white"/>
<path d="M24.0019 26.7838C24.9025 26.7385 25.6005 27.1007 26.1409 27.7799C26.7038 28.4818 26.6137 29.3648 25.9158 29.9761C25.3529 30.4515 24.6999 30.6553 23.9794 30.61C22.6509 30.5194 21.3225 30.4289 19.9941 30.293C19.2736 30.2251 18.7332 29.795 18.6656 29.3421C18.5756 28.7988 19.0034 28.1648 19.6563 27.8479C19.7014 27.8252 19.7689 27.7799 19.8139 27.7799C21.2099 27.463 22.6284 27.1234 24.0019 26.8064V26.7838Z" fill="white"/>
<path d="M3.15217 26.7385C3.73758 26.8064 4.03029 26.8064 4.32299 26.8743C5.08853 27.0781 5.56137 27.6894 5.51634 28.3686C5.44879 29.2968 4.90841 30.0213 4.03029 29.9761C2.99455 29.9308 1.98134 29.7044 0.945607 29.5459C0.787996 29.5233 0.630385 29.3874 0.517805 29.2742C-0.22522 28.6176 -0.157672 27.6441 0.76548 27.3271C1.62108 27.0101 2.54424 26.8969 3.17468 26.7385H3.15217Z" fill="white"/>
</g>
<defs>
<clipPath id="clip0_4_163">
<rect width="92" height="89" fill="white"/>
</clipPath>
</defs>
</svg>
