<svg width="265" height="225" viewBox="0 0 265 225" fill="none" xmlns="http://www.w3.org/2000/svg">
<g clip-path="url(#clip0_4_166)">
<path d="M126.903 -1.70399e-05C152.351 -0.0677949 179.499 5.1511 200.506 5.73851C219.995 6.28073 243.223 9.05963 252.083 26.3882C256.751 35.5382 256.049 46.2471 256.071 56.2104C256.071 66.6708 256.457 77.1312 256.57 87.5916C256.751 102.661 256.91 117.73 257.091 132.799C257.25 146.626 259.403 161.018 256.162 174.551C252.831 188.445 242.928 201.888 228.833 204.554C219.156 206.384 210.454 202.001 200.959 201.074C189.969 200.013 178.887 201.504 168.033 203.153C138.347 207.671 110.428 211.377 81.9202 199.312C60.8 190.365 61.2532 149.699 59.6896 131.286C57.8087 109.19 57.6047 86.9816 59.0324 64.8408C60.0975 48.1449 59.2817 26.8174 73.4902 15.0693C87.5855 3.43406 106.689 0.0451682 126.903 -1.70399e-05Z" fill="white"/>
<path d="M183.216 41.2315C183.261 55.5778 180.292 70.8957 179.953 82.7568C179.635 93.7594 178.072 106.863 168.237 111.856C163.047 114.499 137.327 114.093 131.661 114.115C125.724 114.115 119.787 114.319 113.85 114.386C105.307 114.477 83.6424 114.59 75.0992 114.68C67.2584 114.771 26.3549 115.991 18.6728 114.161C10.7867 112.285 3.14987 106.682 1.65423 98.7524C0.611812 93.3075 3.10454 88.3823 3.62575 83.0279C4.2376 76.8149 3.37648 70.5794 2.44737 64.4567C-0.136007 47.6704 -2.22084 31.9234 4.62284 15.86C9.69895 3.93109 65.5135 4.2022 75.9603 3.32109C88.4919 2.25924 114.212 2.14627 126.767 2.93702C136.239 3.54702 167.987 3.07257 174.65 11.093C181.267 19.0682 183.17 29.8448 183.193 41.2315H183.216Z" fill="#FEDBBC"/>
<path d="M183.601 42.4967C185.3 42.3386 187.045 42.2708 188.722 41.9771C190.218 41.706 191.442 40.87 192.008 39.3563C193.209 36.2386 190.83 34.0245 188.224 33.5952C186.932 33.3919 185.55 33.5952 184.235 33.6856C180.632 33.9567 177.052 34.16 173.471 34.5893C171.5 34.8152 169.551 35.3123 167.647 35.8997C166.31 36.3063 165.88 37.6167 166.605 38.8141C167.058 39.5597 167.761 40.2826 168.531 40.6893C169.46 41.1637 170.548 41.3897 171.59 41.48C175.579 41.7963 179.567 41.9997 183.533 42.2482C183.533 42.3386 183.533 42.4515 183.556 42.5419L183.601 42.4967Z" fill="#682C0E"/>
<path d="M143.581 39.7178C146.731 39.876 149.224 38.2041 150.402 35.2445C150.765 34.3408 150.742 33.4145 150.13 32.6012C148.861 30.9067 147.23 29.7093 145.009 30.2515C143.287 30.6808 141.61 30.3645 139.933 30.4549C138.233 30.5452 136.511 30.8389 134.834 31.11C132.999 31.4038 131.163 31.6975 129.35 32.0815C127.628 32.443 126.971 33.6404 127.447 35.3801C127.764 36.4871 128.489 37.2778 129.531 37.6393C131.027 38.1815 132.545 38.8367 134.109 39.0175C137.259 39.4015 140.431 39.4919 143.604 39.7178H143.581Z" fill="#682C0E"/>
<path d="M199.441 55.9619C197.447 56.0749 195.475 56.1201 193.504 56.3234C192.598 56.4138 191.668 56.6849 190.853 57.069C189.198 57.8597 188.926 59.7349 190.218 61.0227C190.671 61.4745 191.261 61.9264 191.85 62.1071C194.274 62.8075 196.722 63.4175 199.169 64.0275C200.325 64.2986 201.503 64.5019 202.682 64.6827C205.65 65.1797 208.483 64.7505 211.089 63.2142C212.131 62.6042 212.517 61.7005 212.358 60.5256C212.063 58.1986 210.59 56.6171 208.166 56.5267C205.265 56.4138 202.387 55.2616 199.441 55.9619Z" fill="#682C0E"/>
<path d="M165.835 63.9145C167.919 64.0275 169.528 63.169 170.775 61.6327C172.066 60.0286 171.84 58.0179 170.253 56.6623C168.984 55.5778 167.466 55.1034 165.812 55.239C162.753 55.4649 159.693 55.6682 156.657 55.9619C155.002 56.1201 153.756 57.1141 153.598 58.1308C153.416 59.396 154.368 60.8193 155.864 61.5423C155.977 61.6101 156.113 61.6779 156.226 61.7005C159.444 62.446 162.685 63.169 165.857 63.8919L165.835 63.9145Z" fill="#682C0E"/>
<path d="M102.519 34.0697C99.6413 34.5893 96.7406 35.0412 93.8853 35.6512C92.6843 35.8997 91.4152 36.5549 91.3926 37.9105C91.3699 39.3338 92.3897 40.3053 93.7267 40.8701C94.0893 41.0282 94.4745 41.1864 94.8824 41.2316C98.1909 41.5931 101.477 42.0223 104.808 42.2482C106.304 42.3612 107.663 41.6382 108.751 40.5538C109.997 39.2886 110.065 37.5038 108.819 36.2612C107.777 35.2219 106.621 34.2956 104.967 34.386C104.173 34.4312 103.358 34.386 102.565 34.386C102.565 34.273 102.542 34.1601 102.519 34.0471V34.0697Z" fill="#682C0E"/>
<path d="M221.037 86.349C222.737 86.1909 224.482 86.1231 226.159 85.8294C227.654 85.5583 228.878 84.7223 229.444 83.2086C230.646 80.0909 228.266 77.8768 225.66 77.4475C224.368 77.2442 222.986 77.4475 221.672 77.5379C218.069 77.809 214.465 78.0123 210.908 78.4416C208.936 78.6675 206.987 79.1646 205.106 79.752C203.769 80.1586 203.339 81.469 204.064 82.6664C204.517 83.412 205.22 84.1349 205.99 84.5416C206.919 85.016 208.007 85.242 209.049 85.3323C213.038 85.6486 217.026 85.852 220.992 86.1005C220.992 86.1909 220.992 86.3038 221.015 86.3942L221.037 86.349Z" fill="#682C0E"/>
<path d="M181.018 83.5701C184.168 83.7283 186.66 82.0564 187.839 79.0968C188.201 78.1931 188.179 77.2668 187.567 76.4535C186.298 74.759 184.666 73.5616 182.445 74.1038C180.723 74.5331 179.046 74.2168 177.369 74.3072C175.67 74.3975 173.947 74.6912 172.27 74.9623C170.435 75.256 168.599 75.5498 166.786 75.9338C165.064 76.2953 164.407 77.4927 164.883 79.2324C165.2 80.3394 165.925 81.1301 166.968 81.4916C168.463 82.0338 169.982 82.689 171.545 82.8698C174.695 83.2538 177.868 83.3442 181.04 83.5701H181.018Z" fill="#682C0E"/>
<path d="M139.956 77.8994C137.078 78.419 134.177 78.8708 131.322 79.4808C130.121 79.7294 128.852 80.3846 128.829 81.7401C128.806 83.1634 129.826 84.1349 131.163 84.6997C131.526 84.8579 131.911 85.016 132.319 85.0612C135.627 85.4227 138.913 85.852 142.244 86.0779C143.74 86.1909 145.1 85.4679 146.187 84.3834C147.434 83.1183 147.502 81.3334 146.255 80.0908C145.213 79.0516 144.057 78.1253 142.403 78.2157C141.61 78.2608 140.794 78.2157 140.001 78.2157C140.001 78.1027 139.978 77.9897 139.956 77.8768V77.8994Z" fill="#682C0E"/>
<path d="M117.997 64.0049C119.356 63.8468 120.036 63.8694 120.671 63.6886C122.438 63.2142 123.526 61.8586 123.413 60.2771C123.277 58.1308 122.008 56.5268 119.991 56.5945C117.612 56.6849 115.277 57.2045 112.921 57.5886C112.558 57.6564 112.218 57.9501 111.924 58.2212C110.224 59.6897 110.383 61.9038 112.467 62.672C114.439 63.3949 116.569 63.666 117.997 64.0049Z" fill="#682C0E"/>
<path d="M192.235 103.519C189.991 103.565 187.816 103.361 185.573 104.31C183.714 105.101 181.38 104.739 179.273 105.033C178.253 105.169 177.211 105.53 176.281 106.005C174.219 107.044 173.743 108.987 175.284 110.523C176.893 112.105 178.661 113.528 181.267 113.212C182.423 113.076 183.669 113.212 184.802 113.483C188.383 114.341 191.963 113.912 195.521 113.415C197.787 113.099 198.988 111.517 199.509 109.461C200.076 107.134 199.033 105.282 197.311 103.813C196.858 103.429 196.065 103.316 195.43 103.294C194.365 103.294 193.3 103.429 192.235 103.519Z" fill="#682C0E"/>
<path d="M143.604 104.401C141.61 104.513 139.638 104.559 137.667 104.762C136.76 104.852 135.831 105.123 135.015 105.508C133.361 106.298 133.089 108.173 134.381 109.461C134.834 109.913 135.423 110.365 136.013 110.546C138.437 111.246 140.885 111.856 143.332 112.466C144.488 112.737 145.666 112.941 146.845 113.121C149.813 113.618 152.646 113.189 155.252 111.653C156.294 111.043 156.68 110.139 156.521 108.964C156.226 106.637 154.753 105.056 152.329 104.965C149.428 104.852 146.55 103.7 143.604 104.401Z" fill="#682C0E"/>
<path d="M109.997 112.353C112.082 112.466 113.691 111.608 114.938 110.071C116.229 108.467 116.003 106.456 114.416 105.101C113.147 104.016 111.629 103.542 109.975 103.678C106.915 103.903 103.856 104.107 100.82 104.401C99.1653 104.559 97.919 105.553 97.7603 106.592C97.5791 107.857 98.5308 109.281 100.026 110.003C100.14 110.071 100.276 110.139 100.389 110.162C103.607 110.907 106.847 111.63 110.02 112.353H109.997Z" fill="#682C0E"/>
<path d="M62.1597 112.466C63.5193 112.308 64.1992 112.331 64.8337 112.15C66.6013 111.675 67.689 110.32 67.5757 108.738C67.4397 106.592 66.1707 104.988 64.1538 105.056C61.7744 105.146 59.4403 105.666 57.0836 106.05C56.721 106.118 56.3811 106.411 56.0865 106.66C54.3869 108.128 54.5455 110.342 56.6303 111.111C58.6018 111.834 60.732 112.105 62.1597 112.444V112.466Z" fill="#682C0E"/>
<path d="M265 168.744C265.023 179.679 262.779 191.337 262.53 200.351C262.303 208.711 261.102 218.697 253.601 222.492C249.636 224.503 245.013 224.187 240.707 224.209C236.198 224.209 231.665 224.367 227.156 224.413C220.652 224.48 214.126 224.548 207.622 224.639C201.662 224.706 195.43 225.633 189.584 224.232C183.578 222.809 177.777 218.539 176.621 212.506C175.828 208.349 177.732 204.621 178.117 200.532C178.57 195.81 177.936 191.043 177.211 186.389C175.262 173.647 173.653 161.65 178.865 149.428C182.74 140.368 200.302 140.549 208.256 139.894C217.797 139.08 227.405 138.99 236.945 139.6C244.152 140.052 253.375 139.713 258.451 145.813C263.482 151.868 264.932 160.091 264.955 168.767L265 168.744Z" fill="#F0A500"/>
</g>
<defs>
<clipPath id="clip0_4_166">
<rect width="265" height="225" fill="white"/>
</clipPath>
</defs>
</svg>
