<svg width="97" height="69" viewBox="0 0 97 69" fill="none" xmlns="http://www.w3.org/2000/svg">
<g clip-path="url(#clip0_4_167)">
<path d="M62.6775 68.9774C81.6334 68.9774 97.0002 53.5363 97.0002 34.4887C97.0002 15.4411 81.6334 0 62.6775 0C43.7215 0 28.3547 15.4411 28.3547 34.4887C28.3547 53.5363 43.7215 68.9774 62.6775 68.9774Z" fill="#682C0E"/>
<path d="M46.6871 11.3605C47.7907 13.2162 47.588 15.8639 45.9439 17.4707C45.0206 18.3759 43.6467 19.0774 43.5116 20.3674C43.3765 21.5215 44.3224 22.4946 45.0431 23.3998C46.5745 25.3234 47.7231 28.0391 46.6196 30.4152C45.7638 32.2709 43.5341 33.5382 43.4666 35.7334C43.4215 37.6796 45.2458 39.06 46.2592 40.7121C47.3177 42.4546 47.2952 44.3329 46.5971 46.2112C45.8989 48.0443 44.39 49.5605 45.1332 51.6199C45.4485 52.4799 45.9665 53.2267 46.3268 54.064C47.3403 56.3496 47.1151 59.1332 45.7863 61.2378C45.471 61.7357 45.0656 62.2109 44.5476 62.5051C44.0296 62.7767 43.354 62.8219 42.8585 62.5051C42.363 62.1657 42.1378 61.532 42.1603 60.921C42.2279 59.2237 43.8269 57.8433 43.1062 56.0781C42.1828 53.7924 40.6964 51.9594 41.2144 49.3116C41.5748 47.5464 42.7909 46.0076 42.881 44.2198C43.0161 41.4136 40.4712 40.2821 39.7055 37.9512C38.9398 35.6655 39.4127 32.9725 40.9442 31.0942C41.7324 30.121 42.8585 29.1932 42.8585 27.9259C42.8585 26.5681 41.5748 25.6402 40.6964 24.5992C38.7821 22.2909 38.8947 18.5569 40.9667 16.3844C41.5522 15.7734 42.2279 15.2982 42.7909 14.6645C43.3314 14.0535 43.8044 13.2162 43.5567 12.4015C43.3089 11.5641 42.5882 11.27 42.9486 10.2516C43.0161 10.0479 43.1513 9.84424 43.3314 9.75372C43.6242 9.5953 43.917 9.45952 44.2323 9.48215C44.3224 9.48215 44.4125 9.48215 44.5026 9.52741C45.471 9.8895 46.1917 10.5458 46.6646 11.3378L46.6871 11.3605Z" fill="#FC8621"/>
<path d="M36.8454 11.3605C37.9489 13.2162 37.7462 15.8639 36.1021 17.4707C35.1788 18.3759 33.8049 19.0774 33.6698 20.3674C33.5347 21.5215 34.4806 22.4946 35.2013 23.3998C36.7327 25.3234 37.8813 28.0391 36.7778 30.4152C35.922 32.2709 33.6923 33.5382 33.6248 35.7334C33.5797 37.6796 35.404 39.06 36.4174 40.7121C37.476 42.4546 37.4534 44.3329 36.7553 46.2112C36.0571 48.0443 34.5482 49.5605 35.2914 51.6199C35.6067 52.4799 36.1247 53.2267 36.485 54.064C37.4985 56.3496 37.2733 59.1332 35.9445 61.2378C35.6292 61.7357 35.2238 62.2109 34.7058 62.5051C34.1878 62.7767 33.5122 62.8219 33.0167 62.5051C32.5212 62.1657 32.296 61.532 32.3185 60.921C32.3861 59.2237 33.9851 57.8433 33.2644 56.0781C32.3411 53.7924 30.8546 51.9594 31.3726 49.3116C31.733 47.5464 32.9491 46.0076 33.0392 44.2198C33.1743 41.4136 30.6294 40.2821 29.8637 37.9512C29.098 35.6655 29.5709 32.9725 31.1024 31.0942C31.8906 30.121 33.0167 29.1932 33.0167 27.9259C33.0167 26.5681 31.733 25.6402 30.8546 24.5992C28.9403 22.2909 29.0529 18.5569 31.1249 16.3844C31.7105 15.7734 32.3861 15.2982 32.9491 14.6645C33.4896 14.0535 33.9626 13.2162 33.7149 12.4015C33.4671 11.5641 32.7464 11.27 33.1068 10.2516C33.1743 10.0479 33.3095 9.84424 33.4896 9.75372C33.7824 9.5953 34.0752 9.45952 34.3905 9.48215C34.4806 9.48215 34.5707 9.48215 34.6608 9.52741C35.6292 9.8895 36.3499 10.5458 36.8228 11.3378L36.8454 11.3605Z" fill="#FC8621"/>
<path d="M27.0033 11.3605C28.1069 13.2162 27.9042 15.8639 26.2601 17.4707C25.3367 18.3759 23.9629 19.0774 23.8278 20.3674C23.6927 21.5215 24.6386 22.4946 25.3592 23.3998C26.8907 25.3234 28.0393 28.0391 26.9357 30.4152C26.0799 32.2709 23.8503 33.5382 23.7827 35.7334C23.7377 37.6796 25.5619 39.06 26.5754 40.7121C27.6339 42.4546 27.6114 44.3329 26.9132 46.2112C26.2151 48.0443 24.7061 49.5605 25.4493 51.6199C25.7646 52.4799 26.2826 53.2267 26.643 54.064C27.6564 56.3496 27.4312 59.1332 26.1024 61.2378C25.7871 61.7357 25.3818 62.2109 24.8638 62.5051C24.3458 62.7767 23.6701 62.8219 23.1747 62.5051C22.6792 62.1657 22.454 61.532 22.4765 60.921C22.5441 59.2237 24.1431 57.8433 23.4224 56.0781C22.499 53.7924 21.0126 51.9594 21.5306 49.3116C21.8909 47.5464 23.1071 46.0076 23.1972 44.2198C23.3323 41.4136 20.7874 40.2821 20.0217 37.9512C19.2559 35.6655 19.7289 32.9725 21.2603 31.0942C22.0486 30.121 23.1747 29.1932 23.1747 27.9259C23.1747 26.5681 21.8909 25.6402 21.0126 24.5992C19.0983 22.2909 19.2109 18.5569 21.2829 16.3844C21.8684 15.7734 22.5441 15.2982 23.1071 14.6645C23.6476 14.0535 24.1206 13.2162 23.8728 12.4015C23.6251 11.5641 22.9044 11.27 23.2647 10.2516C23.3323 10.0479 23.4674 9.84424 23.6476 9.75372C23.9404 9.5953 24.2332 9.45952 24.5485 9.48215C24.6386 9.48215 24.7286 9.48215 24.8187 9.52741C25.7871 9.8895 26.5078 10.5458 26.9808 11.3378L27.0033 11.3605Z" fill="#FC8621"/>
<path d="M17.184 11.3605C18.2875 13.2162 18.0848 15.8639 16.4408 17.4707C15.5174 18.3759 14.1436 19.0774 14.0084 20.3674C13.8733 21.5215 14.8192 22.4946 15.5399 23.3998C17.0714 25.3234 18.22 28.0391 17.1164 30.4152C16.2606 32.2709 14.031 33.5382 13.9634 35.7334C13.9184 37.6796 15.7426 39.06 16.7561 40.7121C17.8146 42.4546 17.7921 44.3329 17.0939 46.2112C16.3957 48.0443 14.8868 49.5605 15.63 51.6199C15.9453 52.4799 16.4633 53.2267 16.8236 54.064C17.8371 56.3496 17.6119 59.1332 16.2831 61.2378C15.9678 61.7357 15.5624 62.2109 15.0444 62.5051C14.5264 62.7767 13.8508 62.8219 13.3553 62.5051C12.8598 62.1657 12.6346 61.532 12.6572 60.921C12.7247 59.2237 14.3237 57.8433 13.6031 56.0781C12.6797 53.7924 11.1933 51.9594 11.7113 49.3116C12.0716 47.5464 13.2878 46.0076 13.3778 44.2198C13.513 41.4136 10.968 40.2821 10.2023 37.9512C9.43658 35.6655 9.90953 32.9725 11.441 31.0942C12.2292 30.121 13.3553 29.1932 13.3553 27.9259C13.3553 26.5681 12.0716 25.6402 11.1933 24.5992C9.27893 22.2909 9.39154 18.5569 11.4635 16.3844C12.0491 15.7734 12.7247 15.2982 13.2878 14.6645C13.8283 14.0535 14.3012 13.2162 14.0535 12.4015C13.8057 11.5641 13.0851 11.27 13.4454 10.2516C13.513 10.0479 13.6481 9.84424 13.8283 9.75372C14.1211 9.5953 14.4138 9.45952 14.7291 9.48215C14.8192 9.48215 14.9093 9.48215 14.9994 9.52741C15.9678 9.8895 16.6885 10.5458 17.1614 11.3378L17.184 11.3605Z" fill="#FC8621"/>
<path d="M7.34211 11.3605C8.44567 13.2162 8.22045 15.8639 6.59891 17.4707C5.67552 18.3759 4.30171 19.0774 4.16659 20.3674C4.03146 21.5215 4.97736 22.4946 5.72057 23.3998C7.25203 25.3234 8.40062 28.0391 7.29707 30.4152C6.44126 32.2709 4.21163 33.5382 4.14406 35.7334C4.09902 37.6796 5.92326 39.06 6.93673 40.7121C7.99524 42.4546 7.97272 44.3329 7.27455 46.2112C6.57638 48.0443 5.06744 49.5605 5.81065 51.6199C6.12595 52.4799 6.64395 53.2267 7.00429 54.064C8.01776 56.3496 7.79254 59.1332 6.46378 61.2378C6.14848 61.7357 5.74309 62.2109 5.2251 62.5051C4.7071 62.7767 4.03146 62.8219 3.53598 62.5051C3.04051 62.1657 2.8153 61.532 2.83782 60.921C2.90538 59.2237 4.50441 57.8433 3.78372 56.0781C2.86034 53.7924 1.37392 51.9594 1.89192 49.3116C2.25226 47.5464 3.46842 46.0076 3.55851 44.2198C3.69363 41.4136 1.14871 40.2821 0.382978 37.9512C-0.382752 35.6655 0.0901987 32.9725 1.62166 31.0942C2.40991 30.121 3.53598 29.1932 3.53598 27.9259C3.53598 26.5681 2.25226 25.6402 1.37392 24.5992C-0.540403 22.2909 -0.427795 18.5569 1.64418 16.3844C2.22974 15.7734 2.90538 15.2982 3.46842 14.6645C4.00894 14.0535 4.48189 13.2162 4.23415 12.4015C3.98641 11.5641 3.26573 11.27 3.62607 10.2516C3.69363 10.0479 3.82876 9.84424 4.00894 9.75372C4.30171 9.5953 4.59449 9.45952 4.90979 9.48215C4.99988 9.48215 5.08997 9.48215 5.18005 9.52741C6.14848 9.8895 6.86916 10.5458 7.34211 11.3378V11.3605Z" fill="#FC8621"/>
</g>
<defs>
<clipPath id="clip0_4_167">
<rect width="97" height="69" fill="white"/>
</clipPath>
</defs>
</svg>
