<svg width="306" height="187" viewBox="0 0 306 187" fill="none" xmlns="http://www.w3.org/2000/svg">
<g clip-path="url(#clip0_4_162)">
<path d="M301.923 92.0279C307.072 48.5654 275.875 9.17443 232.241 4.04569C188.608 -1.08306 149.063 29.9926 143.914 73.4551C138.765 116.918 169.963 156.309 213.596 161.437C257.229 166.566 296.774 135.49 301.923 92.0279Z" stroke="#D0D0D0" stroke-width="3.12" stroke-miterlimit="10"/>
<path d="M149.495 60.7716C164.985 60.7266 181.538 63.9026 194.314 64.263C206.186 64.6008 220.342 66.2902 225.724 76.8318C228.573 82.3954 228.143 88.9275 228.143 94.9866C228.143 101.339 228.369 107.713 228.437 114.065C228.55 123.233 228.641 132.4 228.754 141.568C228.844 149.969 230.178 158.732 228.188 166.976C226.153 175.422 220.116 183.599 211.545 185.221C205.666 186.324 200.352 183.666 194.563 183.103C187.869 182.45 181.108 183.374 174.505 184.365C156.415 187.113 139.432 189.365 122.065 182.022C109.199 176.571 109.47 151.839 108.52 140.622C107.389 127.174 107.254 113.66 108.113 100.19C108.769 90.0312 108.249 77.057 116.91 69.8941C125.503 62.7989 137.148 60.7491 149.45 60.7266L149.495 60.7716Z" fill="white"/>
<path d="M160.598 78.2057C158.744 78.2508 156.935 78.0706 155.058 78.859C153.498 79.5122 151.575 79.2194 149.834 79.4671C148.975 79.5797 148.116 79.8951 147.347 80.278C145.628 81.134 145.221 82.7557 146.533 84.0396C147.867 85.3461 149.359 86.5399 151.508 86.2696C152.457 86.157 153.498 86.2696 154.447 86.4948C157.432 87.2156 160.394 86.8552 163.357 86.4273C165.234 86.157 166.251 84.8505 166.658 83.1386C167.133 81.2241 166.274 79.6699 164.827 78.4535C164.442 78.1382 163.786 78.0481 163.266 78.0255C162.384 78.0255 161.503 78.1382 160.621 78.2057H160.598Z" fill="#A4806E"/>
<path d="M107.005 67.7543C108.43 67.6191 109.877 67.5741 111.279 67.3038C112.523 67.0785 113.54 66.3803 114.015 65.1189C115.01 62.5286 113.02 60.6815 110.872 60.3211C109.787 60.1409 108.656 60.3211 107.548 60.3887C104.563 60.614 101.555 60.7942 98.593 61.132C96.9649 61.3347 95.3368 61.7402 93.7538 62.2357C92.6458 62.5736 92.284 63.6548 92.8946 64.6459C93.279 65.2766 93.8669 65.8847 94.5001 66.2001C95.2689 66.583 96.1734 66.7857 97.0553 66.8533C100.357 67.1011 103.681 67.2813 107.005 67.484C107.005 67.5741 107.005 67.6417 107.028 67.7318L107.005 67.7543Z" fill="#A4806E"/>
<path d="M73.7187 65.4568C76.3418 65.5694 78.4222 64.1954 79.3945 61.7402C79.6885 60.9744 79.6885 60.231 79.1684 59.5328C78.1056 58.1137 76.7488 57.1226 74.9172 57.5731C73.4925 57.9335 72.0905 57.6632 70.6885 57.7533C69.2639 57.8434 67.8619 58.0687 66.4373 58.2939C64.9222 58.5417 63.3845 58.7895 61.8694 59.1048C60.4222 59.3976 59.9021 60.4112 60.2865 61.8303C60.5352 62.7538 61.1458 63.407 62.0051 63.7224C63.2488 64.1729 64.5151 64.7135 65.8041 64.8711C68.4272 65.1865 71.0729 65.2766 73.696 65.4568H73.7187Z" fill="#A4806E"/>
<path d="M120.166 78.9491C118.515 79.0392 116.864 79.0842 115.214 79.2419C114.467 79.3094 113.676 79.5347 112.998 79.8726C111.641 80.5258 111.392 82.1025 112.455 83.1612C112.839 83.5441 113.314 83.9045 113.812 84.0622C115.824 84.6478 117.859 85.1659 119.895 85.6389C120.867 85.8641 121.839 86.0218 122.812 86.1795C125.276 86.5849 127.628 86.2471 129.799 84.9631C130.658 84.4676 130.975 83.7018 130.862 82.7332C130.613 80.7961 129.392 79.4896 127.379 79.3995C124.96 79.2869 122.585 78.3409 120.121 78.9265L120.166 78.9491Z" fill="#A4806E"/>
<path d="M92.2387 85.5488C93.9799 85.6389 95.3141 84.9406 96.3317 83.6567C97.4171 82.3278 97.2136 80.6384 95.902 79.5347C94.8392 78.6337 93.5955 78.2508 92.1935 78.3409C89.6608 78.5211 87.1056 78.7013 84.5729 78.9491C83.1935 79.0842 82.1533 79.8951 82.0402 80.751C81.8819 81.7872 82.6734 82.981 83.9171 83.5892C84.0076 83.6342 84.1206 83.7018 84.2111 83.7243C86.902 84.3325 89.5704 84.9406 92.2161 85.5488H92.2387Z" fill="#A4806E"/>
<path d="M39.5955 60.7491C37.1985 61.1771 34.8015 61.56 32.4271 62.0555C31.4321 62.2583 30.3919 62.7988 30.3693 63.9476C30.3467 65.1414 31.206 65.9523 32.3141 66.4028C32.608 66.5379 32.9472 66.6731 33.2638 66.6956C36.0226 67.011 38.7588 67.3488 41.5176 67.5516C42.7613 67.6417 43.8919 67.0335 44.7965 66.1325C45.8367 65.0964 45.9045 63.5872 44.8643 62.5736C43.9824 61.7177 43.0326 60.9518 41.6759 61.0194C41.0201 61.0644 40.3417 61.0194 39.6859 61.0194C39.6859 60.9293 39.6859 60.8392 39.6633 60.7491H39.5955Z" fill="#A4806E"/>
<path d="M138.143 104.177C139.568 104.042 141.015 103.997 142.417 103.726C143.661 103.501 144.678 102.803 145.153 101.541C146.148 98.951 144.158 97.104 142.01 96.7436C140.947 96.5634 139.794 96.7436 138.686 96.8111C135.701 97.0364 132.694 97.2166 129.731 97.5545C128.103 97.7572 126.475 98.1626 124.892 98.6582C123.784 98.996 123.422 100.077 124.033 101.068C124.417 101.699 125.005 102.307 125.638 102.623C126.407 103.005 127.312 103.208 128.194 103.276C131.495 103.524 134.819 103.704 138.143 103.906C138.143 103.997 138.143 104.064 138.166 104.154L138.143 104.177Z" fill="#A4806E"/>
<path d="M104.857 101.879C107.48 101.992 109.56 100.618 110.533 98.1626C110.827 97.3968 110.804 96.6535 110.307 95.9552C109.244 94.5361 107.887 93.5451 106.055 93.9956C104.631 94.3559 103.229 94.0857 101.827 94.1758C100.402 94.2659 99.0001 94.4911 97.5754 94.7163C96.0604 94.9641 94.5227 95.2119 93.0076 95.5272C91.5604 95.8201 91.0403 96.8337 91.4247 98.2527C91.6734 99.1762 92.284 99.8294 93.1433 100.145C94.387 100.595 95.6533 101.136 96.9423 101.294C99.5654 101.609 102.211 101.699 104.834 101.879H104.857Z" fill="#A4806E"/>
<path d="M70.7111 97.1715C68.3141 97.5995 65.9171 97.9824 63.5427 98.478C62.5477 98.6807 61.5075 99.2213 61.4849 100.37C61.4623 101.564 62.3216 102.375 63.4297 102.825C63.7236 102.96 64.0628 103.096 64.3794 103.118C67.1156 103.433 69.8744 103.771 72.6332 103.974C73.8769 104.064 75.0075 103.456 75.9121 102.555C76.9523 101.519 77.0201 100.01 75.9799 98.996C75.098 98.1401 74.1482 97.3743 72.7915 97.4418C72.1357 97.4869 71.4573 97.4418 70.8015 97.4418C70.8015 97.3517 70.8015 97.2616 70.7789 97.149L70.7111 97.1715Z" fill="#A4806E"/>
<path d="M52.4397 85.6389C53.5703 85.5263 54.1356 85.5263 54.6557 85.3911C56.1256 85.0082 57.0301 83.8594 56.9397 82.553C56.8266 80.7736 55.7864 79.4446 54.0904 79.4897C52.1231 79.5572 50.1557 80.0077 48.211 80.3231C47.917 80.3681 47.6231 80.6159 47.3743 80.8411C45.9497 82.0575 46.108 83.9045 47.8266 84.5352C49.4547 85.1433 51.2412 85.3686 52.417 85.6389H52.4397Z" fill="#A4806E"/>
<path d="M114.173 118.457C112.319 118.502 110.51 118.322 108.633 119.111C107.073 119.764 105.151 119.471 103.41 119.719C102.55 119.831 101.691 120.147 100.922 120.53C99.2035 121.386 98.7964 123.007 100.108 124.291C101.442 125.598 102.935 126.792 105.083 126.521C106.033 126.409 107.073 126.521 108.023 126.746C111.008 127.467 113.97 127.107 116.932 126.679C118.809 126.409 119.827 125.102 120.234 123.39C120.708 121.476 119.849 119.921 118.402 118.705C118.018 118.39 117.362 118.3 116.842 118.277C115.96 118.277 115.078 118.39 114.196 118.457H114.173Z" fill="#A4806E"/>
<path d="M73.7412 119.201C72.0904 119.291 70.4397 119.336 68.7889 119.494C68.0427 119.561 67.2513 119.786 66.5729 120.124C65.2161 120.777 64.9673 122.354 66.0301 123.413C66.4146 123.796 66.8894 124.156 67.3869 124.314C69.3995 124.899 71.4347 125.418 73.4698 125.891C74.4422 126.116 75.4146 126.273 76.3869 126.431C78.8518 126.837 81.2035 126.499 83.3744 125.215C84.2337 124.719 84.5502 123.953 84.4372 122.985C84.1884 121.048 82.9673 119.741 80.9548 119.651C78.5352 119.539 76.1608 118.593 73.696 119.178L73.7412 119.201Z" fill="#A4806E"/>
<path d="M45.814 125.778C47.5552 125.868 48.8894 125.17 49.907 123.886C50.9924 122.557 50.7889 120.868 49.4774 119.764C48.4145 118.863 47.1708 118.48 45.7688 118.57C43.2361 118.75 40.6809 118.93 38.1482 119.178C36.7688 119.313 35.7286 120.124 35.6155 120.98C35.4573 122.016 36.2487 123.21 37.4924 123.818C37.5829 123.863 37.6959 123.931 37.7864 123.953C40.4774 124.562 43.1457 125.17 45.7914 125.778H45.814Z" fill="#A4806E"/>
<path d="M6.0151 125.868C7.14576 125.755 7.71108 125.755 8.23118 125.62C9.70103 125.237 10.6056 124.089 10.5151 122.782C10.402 121.003 9.36184 119.674 7.66586 119.719C5.69852 119.786 3.73118 120.237 1.78646 120.552C1.49249 120.597 1.19852 120.868 0.949775 121.07C-0.474848 122.287 -0.316556 124.134 1.40204 124.764C3.03018 125.372 4.81661 125.598 5.99249 125.868H6.0151Z" fill="#A4806E"/>
<path d="M181.696 123.278C184.952 125.215 189.611 124.854 192.46 121.949C194.043 120.327 195.286 117.917 197.548 117.647C199.583 117.399 201.279 119.088 202.884 120.372C206.276 123.052 211.048 125.08 215.254 123.165C218.51 121.678 220.749 117.714 224.638 117.624C228.053 117.534 230.495 120.777 233.412 122.557C236.487 124.426 239.812 124.381 243.09 123.143C246.324 121.926 248.992 119.246 252.611 120.552C254.103 121.093 255.46 121.994 256.907 122.647C260.932 124.426 265.839 124.044 269.548 121.701C270.43 121.138 271.266 120.44 271.764 119.516C272.261 118.593 272.329 117.399 271.764 116.52C271.176 115.642 270.023 115.259 268.982 115.304C265.975 115.439 263.555 118.232 260.435 116.993C256.41 115.372 253.198 112.736 248.54 113.66C245.442 114.29 242.729 116.43 239.585 116.588C234.633 116.836 232.643 112.353 228.55 111.002C224.525 109.673 219.776 110.506 216.475 113.187C214.756 114.583 213.105 116.565 210.889 116.565C208.492 116.565 206.864 114.29 205.033 112.759C200.985 109.38 194.404 109.605 190.583 113.232C189.52 114.245 188.661 115.462 187.553 116.453C186.49 117.399 185.02 118.255 183.573 117.827C182.103 117.376 181.583 116.115 179.796 116.768C179.412 116.903 179.095 117.106 178.915 117.444C178.643 117.939 178.394 118.457 178.44 119.043C178.44 119.201 178.44 119.358 178.508 119.494C179.141 121.183 180.294 122.467 181.696 123.3V123.278Z" fill="#FC8621"/>
<path d="M181.696 105.956C184.952 107.893 189.611 107.533 192.46 104.627C194.043 103.005 195.286 100.595 197.548 100.325C199.583 100.1 201.279 101.767 202.884 103.05C206.276 105.731 211.048 107.758 215.254 105.844C218.51 104.334 220.749 100.393 224.638 100.302C228.053 100.212 230.495 103.456 233.412 105.235C236.487 107.105 239.812 107.06 243.09 105.821C246.324 104.605 248.992 101.924 252.611 103.231C254.103 103.771 255.46 104.672 256.907 105.325C260.932 107.105 265.839 106.722 269.548 104.379C270.43 103.816 271.266 103.118 271.764 102.195C272.261 101.271 272.329 100.077 271.764 99.1988C271.176 98.3203 270.023 97.9374 268.982 97.9824C265.975 98.1176 263.555 100.911 260.435 99.6718C256.41 98.05 253.198 95.4146 248.54 96.3381C245.442 96.9688 242.729 99.1087 239.585 99.2663C234.633 99.5141 232.643 95.0317 228.55 93.6802C224.525 92.3513 219.776 93.1847 216.475 95.8651C214.756 97.2616 213.105 99.2438 210.889 99.2438C208.492 99.2438 206.864 96.9688 205.033 95.4371C200.985 92.0584 194.404 92.2837 190.583 95.9102C189.52 96.9238 188.661 98.1401 187.553 99.1312C186.49 100.077 185.02 100.933 183.573 100.505C182.103 100.055 181.583 98.7933 179.796 99.4465C179.412 99.5817 179.095 99.7844 178.915 100.122C178.643 100.618 178.394 101.136 178.44 101.722C178.44 101.879 178.44 102.037 178.508 102.172C179.141 103.861 180.294 105.145 181.696 105.979V105.956Z" fill="#FC8621"/>
<path d="M181.696 88.6122C184.952 90.5493 189.611 90.1889 192.46 87.2832C194.043 85.6614 195.286 83.2513 197.548 82.981C199.583 82.7557 201.279 84.4226 202.884 85.7065C206.276 88.3869 211.048 90.4141 215.254 88.4995C218.51 86.9904 220.749 83.0486 224.638 82.9585C228.053 82.8684 230.495 86.1119 233.412 87.8914C236.487 89.7609 239.812 89.7159 243.09 88.477C246.324 87.2607 248.992 84.5802 252.611 85.8867C254.103 86.4273 255.46 87.3282 256.907 87.9815C260.932 89.7609 265.839 89.378 269.548 87.0354C270.43 86.4723 271.266 85.774 271.764 84.8505C272.261 83.927 272.329 82.7332 271.764 81.8547C271.176 80.9763 270.023 80.5934 268.982 80.6384C265.975 80.7736 263.555 83.5666 260.435 82.3278C256.41 80.706 253.198 78.0706 248.54 78.9941C245.442 79.6248 242.729 81.7646 239.585 81.9223C234.633 82.1701 232.643 77.6877 228.55 76.3362C224.525 75.0072 219.776 75.8407 216.475 78.5211C214.756 79.9176 213.105 81.8998 210.889 81.8998C208.492 81.8998 206.864 79.6248 205.033 78.0931C200.985 74.7144 194.404 74.9397 190.583 78.5661C189.52 79.5798 188.661 80.7961 187.553 81.7872C186.49 82.7332 185.02 83.5891 183.573 83.1612C182.103 82.7107 181.583 81.4493 179.796 82.1025C179.412 82.2377 179.095 82.4404 178.915 82.7783C178.643 83.2738 178.394 83.7919 178.44 84.3775C178.44 84.5352 178.44 84.6929 178.508 84.828C179.141 86.5174 180.294 87.8013 181.696 88.6347V88.6122Z" fill="#FC8621"/>
<path d="M181.696 71.2681C184.952 73.2053 189.611 72.8449 192.46 69.9392C194.043 68.3174 195.286 65.9073 197.548 65.637C199.583 65.3892 201.279 67.0786 202.884 68.3625C206.276 71.0429 211.048 73.0701 215.254 71.1555C218.51 69.6464 220.749 65.7045 224.638 65.6144C228.053 65.5243 230.495 68.7679 233.412 70.5474C236.487 72.4169 239.812 72.3719 243.09 71.133C246.324 69.9167 248.992 67.2362 252.611 68.5427C254.103 69.0833 255.46 69.9842 256.907 70.6375C260.932 72.4169 265.839 72.034 269.548 69.6914C270.43 69.1283 271.266 68.43 271.764 67.5065C272.261 66.583 272.329 65.3892 271.764 64.5107C271.176 63.6323 270.023 63.2494 268.982 63.2944C265.975 63.4296 263.555 66.2226 260.435 64.9838C256.41 63.362 253.198 60.7266 248.54 61.6501C245.442 62.2808 242.729 64.4206 239.585 64.5783C234.633 64.8261 232.643 60.3437 228.55 58.9922C224.525 57.6632 219.776 58.4966 216.475 61.1771C214.756 62.5736 213.105 64.5558 210.889 64.5558C208.492 64.5558 206.864 62.2808 205.033 60.7491C200.985 57.3704 194.404 57.5957 190.583 61.2221C189.52 62.2357 188.661 63.4521 187.553 64.4432C186.49 65.3892 185.02 66.2451 183.573 65.8172C182.103 65.3667 181.583 64.1053 179.796 64.7585C179.412 64.8937 179.095 65.0964 178.915 65.4342C178.643 65.9298 178.394 66.4479 178.44 67.0335C178.44 67.1912 178.44 67.3488 178.508 67.484C179.141 69.1733 180.294 70.4573 181.696 71.2907V71.2681Z" fill="#FC8621"/>
<path d="M181.696 53.9467C184.952 55.8838 189.611 55.5234 192.46 52.6177C194.043 50.9959 195.286 48.5858 197.548 48.3155C199.583 48.0902 201.279 49.7571 202.884 51.041C206.276 53.7214 211.048 55.7486 215.254 53.834C218.51 52.3249 220.749 48.3831 224.638 48.293C228.053 48.2029 230.495 51.4464 233.412 53.2259C236.487 55.0954 239.812 55.0504 243.09 53.8115C246.324 52.5952 248.992 49.9147 252.611 51.2212C254.103 51.7618 255.46 52.6627 256.907 53.316C260.932 55.0954 265.839 54.7125 269.548 52.3699C270.43 51.8068 271.266 51.1085 271.764 50.185C272.261 49.2615 272.329 48.0677 271.764 47.1893C271.176 46.3108 270.023 45.9279 268.982 45.9729C265.975 46.1081 263.555 48.9011 260.435 47.6623C256.41 46.0405 253.198 43.4051 248.54 44.3286C245.442 44.9593 242.729 47.0991 239.585 47.2568C234.633 47.5046 232.643 43.0222 228.55 41.6707C224.525 40.3417 219.776 41.1752 216.475 43.8556C214.756 45.2521 213.105 47.2343 210.889 47.2343C208.492 47.2343 206.864 44.9593 205.033 43.4276C200.985 40.0489 194.404 40.2742 190.583 43.9006C189.52 44.9143 188.661 46.1306 187.553 47.1217C186.49 48.0677 185.02 48.9237 183.573 48.4957C182.103 48.0452 181.583 46.7838 179.796 47.437C179.412 47.5722 179.095 47.7749 178.915 48.1128C178.643 48.6083 178.394 49.1264 178.44 49.712C178.44 49.8697 178.44 50.0274 178.508 50.1625C179.141 51.8519 180.294 53.1358 181.696 53.9692V53.9467Z" fill="#FC8621"/>
</g>
<defs>
<clipPath id="clip0_4_162">
<rect width="306" height="187" fill="white"/>
</clipPath>
</defs>
</svg>
