<svg width="300" height="216" viewBox="0 0 300 216" fill="none" xmlns="http://www.w3.org/2000/svg">
<g clip-path="url(#clip0_19_1027)">
<path d="M264.142 119.49C262.096 128.279 258.091 137.211 256.183 144.43C254.4 151.12 251.568 158.911 244.847 160.536C241.301 161.397 237.662 160.285 234.203 159.495C230.595 158.645 226.934 157.923 223.316 157.118C218.086 155.957 212.862 154.774 207.633 153.613C202.849 152.534 197.679 152.107 193.257 149.882C188.731 147.608 184.875 143.076 185.091 138.016C185.24 134.519 187.463 131.882 188.565 128.68C189.83 124.981 190.203 121.026 190.512 117.149C191.359 106.544 192.353 96.6014 198.821 87.7611C203.638 81.204 217.659 84.6663 224.163 85.6393C231.947 86.7974 239.668 88.5213 247.182 90.8241C252.858 92.5548 260.317 94.0081 263.232 99.8753C266.113 105.688 265.724 112.567 264.104 119.551L264.142 119.49Z" fill="white"/>
<path d="M156.133 157.177C158.348 156.746 160.632 157.004 162.474 158.251C165.833 160.552 166.445 165.157 167.971 168.931C170.764 175.908 177.553 180.898 185.013 181.655C194.79 182.632 204.82 176.023 207.767 166.656C211.182 155.796 205.732 143.733 208.63 132.705C210.73 124.765 217.491 118.433 225.35 116.309C234.324 113.891 241.165 109.785 246.806 101.795C253.766 91.9551 256.099 78.9818 253.007 67.3571C250.874 59.3506 245.952 51.7561 238.523 48.1026C224.245 41.0947 213.744 55.3291 200.236 57.3781C182.084 60.1232 166.131 42.0796 147.809 43.1814C137.565 43.7913 128.482 51.4121 124.977 60.8801C123.205 65.6445 122.899 70.1032 120.627 74.7265C117.288 81.5152 114.363 88.5175 111.256 95.4072C101.78 116.435 86.8491 143.08 105.271 163.656C115.275 174.816 133.606 176.737 144.382 165.773C146.885 163.226 149.243 160.412 152.332 158.629C153.49 157.949 154.816 157.448 156.155 157.182L156.133 157.177Z" fill="#86563E"/>
<path d="M47.062 50.3773C76.6978 32.018 115.588 41.1702 133.926 70.8193C152.264 100.468 143.105 139.387 113.469 157.746C83.8334 176.105 44.9431 166.953 26.6053 137.304C8.26744 107.655 17.4262 68.7366 47.062 50.3773Z" stroke="white" stroke-width="3.23" stroke-miterlimit="10"/>
<path d="M239.284 130.207C242.037 118.51 253.744 111.258 265.432 114.008C277.12 116.759 284.364 128.471 281.611 140.168C278.858 151.864 267.152 159.116 255.464 156.366C243.775 153.615 236.532 141.903 239.284 130.207Z" fill="#FC8621"/>
</g>
<defs>
<clipPath id="clip0_19_1027">
<rect width="158" height="271" fill="white" transform="matrix(0.229075 -0.973409 -0.973409 -0.229075 263.794 215.878)"/>
</clipPath>
</defs>
</svg>
