<svg width="87" height="74" viewBox="0 0 87 74" fill="none" xmlns="http://www.w3.org/2000/svg">
<g clip-path="url(#clip0_4_164)">
<path d="M69.7306 34.2146C73.1079 32.4779 77.7686 30.0195 81.6188 31.3728C84.4107 32.3426 86.5497 35.004 86.9324 37.9586C87.3602 41.3868 85.604 44.6571 83.8928 47.6568C79.3897 55.5733 74.8641 63.4672 70.361 71.3837C69.8206 72.3536 69.0326 73.1655 68.0194 73.6391C65.3626 74.9022 63.7189 72.8723 63.4713 70.8875C63.3136 69.6245 63.6514 68.3615 63.9666 67.121C64.7772 63.9634 65.7453 60.7833 66.6685 57.6032C67.5916 54.4456 63.809 52.0549 61.3548 54.2426L61.2872 54.2877C57.8874 57.2874 54.4876 60.242 51.4705 63.6477C48.8136 66.6474 45.7966 69.602 41.6087 70.0981C39.7174 70.3237 37.7585 69.8726 36.295 68.6547C33.0303 65.9482 33.8633 61.5501 35.1242 57.9415C35.597 56.6108 36.4301 54.8065 37.4658 52.754C38.7717 50.1829 35.3268 47.8824 33.458 50.0476L19.656 65.8354C16.9091 68.9704 13.3742 72.4438 9.09625 71.0905C6.37187 70.2109 4.59315 67.6397 4.25541 64.7979C3.8051 60.9637 5.20106 57.2874 6.70961 53.8592C6.79967 53.6788 6.88973 53.4758 7.00231 53.2502C8.39827 50.5663 7.04734 47.4087 4.21038 46.3261C4.18787 46.3261 4.14284 46.3036 4.12032 46.281C1.486 45.221 -0.180146 42.4919 -2.21031e-05 39.6501C0.112556 37.8458 0.788021 35.9963 1.50852 34.3048C2.76939 31.3502 4.21038 28.4633 5.8315 25.6891C5.87653 25.5989 5.94408 25.4861 6.03414 25.3283C7.1374 23.2307 5.8315 20.8174 3.55743 20.2987C2.67933 20.0957 1.9138 19.5319 1.44097 18.4493C0.990661 17.4343 0.990661 16.2841 1.37343 15.2466C2.2065 12.8558 4.25541 11.4124 6.23678 10.1042C8.53336 8.59311 10.92 7.10454 13.5543 6.3377C16.2112 5.57086 19.1832 5.61597 21.5699 7.01433C22.9208 7.82627 24.0466 9.15697 24.5419 10.6455C24.5419 10.6455 24.5419 10.6681 24.5419 10.6906C25.1273 12.5401 27.2438 13.3746 28.8199 12.2694C33.1879 9.17952 40.5054 4.14996 44.8284 1.82688C47.3726 0.451084 50.2997 -0.879608 53.1141 0.902166C54.8028 1.98476 55.7484 3.87931 55.906 5.88662C56.0186 7.33008 55.7484 8.5029 55.2981 9.54039C54.4876 11.4124 56.5815 13.2167 58.3602 12.2243H58.4053C60.7919 10.8485 62.6832 8.72844 65.0924 7.35264C68.2445 5.57087 72.0947 4.71381 75.5396 6.40537C76.3501 6.81134 77.0706 7.35264 77.6786 8.02926C80.7407 11.5251 79.1421 15.9006 76.7554 19.1033C74.3688 22.2835 70.4961 27.3356 67.3214 31.463C66.1056 33.0418 67.8843 35.207 69.663 34.2822H69.7081L69.7306 34.2146Z" fill="#FAE4B2"/>
</g>
<defs>
<clipPath id="clip0_4_164">
<rect width="87" height="74" fill="white"/>
</clipPath>
</defs>
</svg>
