<svg width="161" height="24" viewBox="0 0 161 24" fill="none" xmlns="http://www.w3.org/2000/svg">
<path d="M8.91089 7.92501L1.94205 8.93538L1.81862 8.9605C1.63177 9.01011 1.46144 9.10841 1.32501 9.24537C1.18858 9.38234 1.09094 9.55306 1.04207 9.7401C0.993199 9.92714 0.994845 10.1238 1.04684 10.31C1.09883 10.4962 1.19931 10.6653 1.33801 10.7999L6.3866 15.7142L5.196 22.6557L5.1818 22.7758C5.17036 22.9691 5.21049 23.1619 5.29807 23.3346C5.38566 23.5072 5.51755 23.6535 5.68025 23.7584C5.84295 23.8633 6.03061 23.9231 6.22401 23.9316C6.41741 23.9402 6.60961 23.8971 6.78092 23.807L13.0136 20.5301L19.232 23.807L19.3412 23.8572C19.5215 23.9282 19.7175 23.95 19.9089 23.9203C20.1004 23.8906 20.2806 23.8105 20.4309 23.6882C20.5812 23.5659 20.6963 23.4058 20.7643 23.2244C20.8323 23.0429 20.8509 22.8467 20.818 22.6557L19.6263 15.7142L24.6771 10.7988L24.7623 10.706C24.884 10.5561 24.9638 10.3766 24.9935 10.1858C25.0233 9.99506 25.002 9.7998 24.9317 9.61995C24.8614 9.44011 24.7447 9.28211 24.5935 9.16205C24.4423 9.04198 24.2619 8.96415 24.0709 8.93647L17.102 7.92501L13.9868 1.61154C13.8966 1.42862 13.7571 1.27459 13.5839 1.16687C13.4108 1.05916 13.2109 1.00208 13.007 1.00208C12.8031 1.00208 12.6032 1.05916 12.4301 1.16687C12.2569 1.27459 12.1174 1.42862 12.0272 1.61154L8.91089 7.92501Z" fill="#F0A500"/>
<path d="M42.9109 7.92501L35.9421 8.93538L35.8186 8.9605C35.6318 9.01011 35.4614 9.10841 35.325 9.24537C35.1886 9.38234 35.0909 9.55306 35.0421 9.7401C34.9932 9.92714 34.9948 10.1238 35.0468 10.31C35.0988 10.4962 35.1993 10.6653 35.338 10.7999L40.3866 15.7142L39.196 22.6557L39.1818 22.7758C39.1704 22.9691 39.2105 23.1619 39.2981 23.3346C39.3857 23.5072 39.5176 23.6535 39.6803 23.7584C39.843 23.8633 40.0306 23.9231 40.224 23.9316C40.4174 23.9402 40.6096 23.8971 40.7809 23.807L47.0136 20.5301L53.232 23.807L53.3412 23.8572C53.5215 23.9282 53.7175 23.95 53.9089 23.9203C54.1004 23.8906 54.2806 23.8105 54.4309 23.6882C54.5812 23.5659 54.6963 23.4058 54.7643 23.2244C54.8323 23.0429 54.8509 22.8467 54.818 22.6557L53.6263 15.7142L58.6771 10.7988L58.7623 10.706C58.884 10.5561 58.9638 10.3766 58.9935 10.1858C59.0233 9.99506 59.002 9.7998 58.9317 9.61995C58.8614 9.44011 58.7447 9.28211 58.5935 9.16205C58.4423 9.04198 58.2619 8.96415 58.0709 8.93647L51.102 7.92501L47.9868 1.61154C47.8966 1.42862 47.7571 1.27459 47.5839 1.16687C47.4108 1.05916 47.2109 1.00208 47.007 1.00208C46.8031 1.00208 46.6032 1.05916 46.4301 1.16687C46.2569 1.27459 46.1174 1.42862 46.0272 1.61154L42.9109 7.92501Z" fill="#F0A500"/>
<path d="M76.9109 7.92501L69.9421 8.93538L69.8186 8.9605C69.6318 9.01011 69.4614 9.10841 69.325 9.24537C69.1886 9.38234 69.0909 9.55306 69.0421 9.7401C68.9932 9.92714 68.9948 10.1238 69.0468 10.31C69.0988 10.4962 69.1993 10.6653 69.338 10.7999L74.3866 15.7142L73.196 22.6557L73.1818 22.7758C73.1704 22.9691 73.2105 23.1619 73.2981 23.3346C73.3857 23.5072 73.5176 23.6535 73.6803 23.7584C73.843 23.8633 74.0306 23.9231 74.224 23.9316C74.4174 23.9402 74.6096 23.8971 74.7809 23.807L81.0136 20.5301L87.232 23.807L87.3412 23.8572C87.5215 23.9282 87.7175 23.95 87.9089 23.9203C88.1004 23.8906 88.2806 23.8105 88.4309 23.6882C88.5812 23.5659 88.6963 23.4058 88.7643 23.2244C88.8323 23.0429 88.8509 22.8467 88.818 22.6557L87.6263 15.7142L92.6771 10.7988L92.7623 10.706C92.884 10.5561 92.9638 10.3766 92.9935 10.1858C93.0233 9.99506 93.002 9.7998 92.9317 9.61995C92.8614 9.44011 92.7447 9.28211 92.5935 9.16205C92.4423 9.04198 92.2619 8.96415 92.0709 8.93647L85.102 7.92501L81.9868 1.61154C81.8966 1.42862 81.7571 1.27459 81.5839 1.16687C81.4108 1.05916 81.2109 1.00208 81.007 1.00208C80.8031 1.00208 80.6032 1.05916 80.4301 1.16687C80.2569 1.27459 80.1174 1.42862 80.0272 1.61154L76.9109 7.92501Z" fill="#F0A500"/>
<path d="M110.911 7.92501L103.942 8.93538L103.819 8.9605C103.632 9.01011 103.461 9.10841 103.325 9.24537C103.189 9.38234 103.091 9.55306 103.042 9.7401C102.993 9.92714 102.995 10.1238 103.047 10.31C103.099 10.4962 103.199 10.6653 103.338 10.7999L108.387 15.7142L107.196 22.6557L107.182 22.7758C107.17 22.9691 107.21 23.1619 107.298 23.3346C107.386 23.5072 107.518 23.6535 107.68 23.7584C107.843 23.8633 108.031 23.9231 108.224 23.9316C108.417 23.9402 108.61 23.8971 108.781 23.807L115.014 20.5301L121.232 23.807L121.341 23.8572C121.522 23.9282 121.717 23.95 121.909 23.9203C122.1 23.8906 122.281 23.8105 122.431 23.6882C122.581 23.5659 122.696 23.4058 122.764 23.2244C122.832 23.0429 122.851 22.8467 122.818 22.6557L121.626 15.7142L126.677 10.7988L126.762 10.706C126.884 10.5561 126.964 10.3766 126.994 10.1858C127.023 9.99506 127.002 9.7998 126.932 9.61995C126.861 9.44011 126.745 9.28211 126.594 9.16205C126.442 9.04198 126.262 8.96415 126.071 8.93647L119.102 7.92501L115.987 1.61154C115.897 1.42862 115.757 1.27459 115.584 1.16687C115.411 1.05916 115.211 1.00208 115.007 1.00208C114.803 1.00208 114.603 1.05916 114.43 1.16687C114.257 1.27459 114.117 1.42862 114.027 1.61154L110.911 7.92501Z" fill="#F0A500"/>
<path d="M144.911 7.92501L137.942 8.93538L137.819 8.9605C137.632 9.01011 137.461 9.10841 137.325 9.24537C137.189 9.38234 137.091 9.55306 137.042 9.7401C136.993 9.92714 136.995 10.1238 137.047 10.31C137.099 10.4962 137.199 10.6653 137.338 10.7999L142.387 15.7142L141.196 22.6557L141.182 22.7758C141.17 22.9691 141.21 23.1619 141.298 23.3346C141.386 23.5072 141.518 23.6535 141.68 23.7584C141.843 23.8633 142.031 23.9231 142.224 23.9316C142.417 23.9402 142.61 23.8971 142.781 23.807L149.014 20.5301L155.232 23.807L155.341 23.8572C155.522 23.9282 155.717 23.95 155.909 23.9203C156.1 23.8906 156.281 23.8105 156.431 23.6882C156.581 23.5659 156.696 23.4058 156.764 23.2244C156.832 23.0429 156.851 22.8467 156.818 22.6557L155.626 15.7142L160.677 10.7988L160.762 10.706C160.884 10.5561 160.964 10.3766 160.994 10.1858C161.023 9.99506 161.002 9.7998 160.932 9.61995C160.861 9.44011 160.745 9.28211 160.594 9.16205C160.442 9.04198 160.262 8.96415 160.071 8.93647L153.102 7.92501L149.987 1.61154C149.897 1.42862 149.757 1.27459 149.584 1.16687C149.411 1.05916 149.211 1.00208 149.007 1.00208C148.803 1.00208 148.603 1.05916 148.43 1.16687C148.257 1.27459 148.117 1.42862 148.027 1.61154L144.911 7.92501Z" fill="#F0A500"/>
</svg>
