<svg width="24" height="24" viewBox="0 0 24 24" fill="none" xmlns="http://www.w3.org/2000/svg">
<g clip-path="url(#clip0_4_205)">
<path d="M24 12C24 18.6322 18.6322 24 12 24C5.36784 24 0 18.6322 0 12C0 5.36784 5.36784 0 12 0C18.6322 0 24 5.36784 24 12Z" fill="#FC8621"/>
<path fill-rule="evenodd" clip-rule="evenodd" d="M16.8576 6.96488C15.5711 5.67837 13.841 4.9464 11.9999 4.9464C8.20697 4.9464 5.14598 8.02958 5.12379 11.8004C5.12379 13.0203 5.43433 14.1959 6.03322 15.2384L5.05725 18.7874L8.69496 17.8336C9.69311 18.3882 10.8243 18.6765 11.9778 18.6765C15.7707 18.6765 18.8539 15.5933 18.8539 11.8226C18.8539 9.98152 18.1441 8.27357 16.8354 6.96488M11.9999 17.5231C10.9796 17.5231 9.98147 17.2569 9.09422 16.7246L8.89459 16.5915L6.74302 17.1682L7.31973 15.061L7.18664 14.8392C6.60993 13.9298 6.32158 12.8872 6.32158 11.8004C6.32158 8.65065 8.87241 6.09982 12.0221 6.09982C13.5526 6.09982 14.9722 6.69871 16.0591 7.7634C17.146 8.85028 17.7227 10.2699 17.7227 11.8004C17.7227 14.9501 15.1719 17.5009 12.0221 17.5009" fill="#ECECED"/>
<path fill-rule="evenodd" clip-rule="evenodd" d="M15.1274 13.2421C14.95 13.1534 14.1071 12.732 13.9518 12.6876C13.7966 12.6211 13.6857 12.5989 13.5748 12.7763C13.4639 12.9538 13.1311 13.3309 13.0202 13.4418C12.9315 13.5527 12.8206 13.5749 12.6431 13.4861C12.4657 13.3974 11.9112 13.22 11.2679 12.6432C10.7578 12.1774 10.4029 11.6229 10.3141 11.4455C10.2032 11.268 10.3141 11.1793 10.3807 11.0906C10.4472 11.024 10.5581 10.8909 10.6468 10.78C10.7356 10.6691 10.7578 10.6026 10.8243 10.4917C10.8908 10.3808 10.8465 10.2699 10.8243 10.1811C10.7799 10.0924 10.4472 9.24953 10.2919 8.91682C10.1589 8.5841 10.0036 8.62846 9.91487 8.62846C9.82614 8.62846 9.69306 8.62846 9.58215 8.62846C9.47125 8.62846 9.27162 8.67282 9.11635 8.85027C8.96108 9.02772 8.51746 9.42698 8.51746 10.2699C8.51746 11.1128 9.13853 11.9335 9.22725 12.0444C9.31598 12.1553 10.4472 13.8854 12.1552 14.6396C12.5544 14.817 12.8871 14.9279 13.1311 14.9945C13.5526 15.1275 13.9075 15.1054 14.218 15.061C14.5507 15.0166 15.2383 14.6396 15.3714 14.2403C15.5045 13.841 15.5045 13.4861 15.4602 13.4196C15.4158 13.353 15.3049 13.3087 15.1274 13.22" fill="#ECECED"/>
</g>
<defs>
<clipPath id="clip0_4_205">
<rect width="24" height="24" fill="white"/>
</clipPath>
</defs>
</svg>
