<svg width="24" height="24" viewBox="0 0 24 24" fill="none" xmlns="http://www.w3.org/2000/svg">
<g clip-path="url(#clip0_4_204)">
<path d="M24 12C24 18.6322 18.6322 24 12 24C5.36784 24 0 18.6322 0 12C0 5.36784 5.36784 0 12 0C18.6322 0 24 5.36784 24 12Z" fill="#FC8621"/>
<path d="M12.0221 5.96673C13.9297 5.96673 14.1515 5.96673 14.9057 6.0111C15.5933 6.03328 15.9704 6.16636 16.2365 6.25509C16.5693 6.38818 16.8133 6.54344 17.0572 6.78744C17.3012 7.03143 17.4565 7.27542 17.5896 7.60814C17.6783 7.85213 17.8114 8.22921 17.8336 8.93901C17.8779 9.69317 17.878 9.91498 17.878 11.8226C17.878 13.7301 17.8779 13.9519 17.8336 14.7061C17.8114 15.3937 17.6783 15.7708 17.5896 16.037C17.4565 16.3697 17.3012 16.6137 17.0572 16.8577C16.8133 17.1017 16.5693 17.2569 16.2365 17.39C15.9926 17.4788 15.6155 17.6118 14.9057 17.634C14.1515 17.6784 13.9297 17.6784 12.0221 17.6784C10.1145 17.6784 9.89274 17.6784 9.13858 17.634C8.45096 17.6118 8.07388 17.4788 7.80771 17.39C7.47499 17.2569 7.231 17.1017 6.98701 16.8577C6.74301 16.6137 6.58774 16.3697 6.45466 16.037C6.36593 15.793 6.23285 15.4159 6.21067 14.7061C6.1663 13.9519 6.1663 13.7301 6.1663 11.8226C6.1663 9.91498 6.1663 9.69317 6.21067 8.93901C6.23285 8.25139 6.36593 7.87431 6.45466 7.60814C6.58774 7.27542 6.74301 7.03143 6.98701 6.78744C7.231 6.54344 7.47499 6.38818 7.80771 6.25509C8.0517 6.16636 8.42878 6.03328 9.13858 6.0111C9.89274 5.96673 10.1145 5.96673 12.0221 5.96673ZM12.0221 4.70241C10.0924 4.70241 9.84837 4.70241 9.09421 4.74677C8.34006 4.79113 7.82989 4.90204 7.36408 5.07949C6.89828 5.25694 6.49902 5.50093 6.09976 5.90019C5.7005 6.29945 5.45651 6.69871 5.27906 7.16452C5.10161 7.60814 4.9907 8.14049 4.94634 8.89465C4.90198 9.6488 4.90198 9.8928 4.90198 11.8226C4.90198 13.7523 4.90198 13.9963 4.94634 14.7505C4.9907 15.5046 5.10161 16.0148 5.27906 16.4806C5.45651 16.9464 5.7005 17.3457 6.09976 17.7449C6.49902 18.1442 6.89828 18.3882 7.36408 18.5656C7.80771 18.7431 8.34006 18.854 9.09421 18.8983C9.84837 18.9427 10.0924 18.9427 12.0221 18.9427C13.9519 18.9427 14.1959 18.9427 14.95 18.8983C15.7042 18.854 16.2144 18.7431 16.6802 18.5656C17.146 18.3882 17.5452 18.1442 17.9445 17.7449C18.3438 17.3457 18.5877 16.9464 18.7652 16.4806C18.9426 16.037 19.0535 15.5046 19.0979 14.7505C19.1423 13.9963 19.1423 13.7523 19.1423 11.8226C19.1423 9.8928 19.1423 9.6488 19.0979 8.89465C19.0535 8.14049 18.9426 7.63032 18.7652 7.16452C18.5877 6.69871 18.3438 6.29945 17.9445 5.90019C17.5452 5.50093 17.146 5.25694 16.6802 5.07949C16.2365 4.90204 15.7042 4.79113 14.95 4.74677C14.1959 4.70241 13.9519 4.70241 12.0221 4.70241Z" fill="#ECECED"/>
<path d="M12.0221 8.16267C10.0036 8.16267 8.36218 9.80408 8.36218 11.8226C8.36218 13.841 10.0036 15.4825 12.0221 15.4825C14.0406 15.4825 15.682 13.841 15.682 11.8226C15.682 9.80408 14.0406 8.16267 12.0221 8.16267ZM12.0221 14.1738C10.7134 14.1738 9.64869 13.1091 9.64869 11.8004C9.64869 10.4917 10.7134 9.427 12.0221 9.427C13.3308 9.427 14.3955 10.4917 14.3955 11.8004C14.3955 13.1091 13.3308 14.1738 12.0221 14.1738Z" fill="#ECECED"/>
<path d="M16.6579 8.0074C16.6579 8.4732 16.2809 8.85028 15.8151 8.85028C15.3492 8.85028 14.9722 8.4732 14.9722 8.0074C14.9722 7.54159 15.3492 7.14233 15.8151 7.14233C16.2809 7.14233 16.6579 7.51941 16.6579 8.0074Z" fill="#ECECED"/>
</g>
<defs>
<clipPath id="clip0_4_204">
<rect width="24" height="24" fill="white"/>
</clipPath>
</defs>
</svg>
