<svg width="24" height="24" viewBox="0 0 24 24" fill="none" xmlns="http://www.w3.org/2000/svg">
<g clip-path="url(#clip0_4_203)">
<path d="M24 12C24 18.6322 18.6322 24 12 24C5.36784 24 0 18.6322 0 12C0 5.36784 5.36784 0 12 0C18.6322 0 24 5.36784 24 12Z" fill="#FC8621"/>
<path d="M13.0647 18.7209V12.4658H15.1719L15.4824 10.0259H13.0647V8.4732C13.0647 7.76341 13.2643 7.2976 14.2625 7.2976H15.549V5.12385C15.3272 5.10167 14.5508 5.03513 13.6636 5.03513C11.8004 5.03513 10.536 6.16636 10.536 8.25139V10.0481H8.42883V12.488H10.536V18.7431H13.0647V18.7209Z" fill="#ECECED"/>
</g>
<defs>
<clipPath id="clip0_4_203">
<rect width="24" height="24" fill="white"/>
</clipPath>
</defs>
</svg>
