<svg width="148" height="73" viewBox="0 0 148 73" fill="none" xmlns="http://www.w3.org/2000/svg">
<path d="M37.3388 22.039V8.7887C37.3388 8.27303 36.9096 7.84705 36.3901 7.84705C35.8706 7.84705 35.4414 8.27303 35.4414 8.7887V16.5685L27.7161 24.2362V0.941646C27.7161 0.425983 27.2869 0 26.7674 0C26.2479 0 25.8187 0.425983 25.8187 0.941646V24.2586L18.0934 16.5909V8.7887C18.0934 8.27303 17.6642 7.84705 17.1447 7.84705C16.6252 7.84705 16.196 8.27303 16.196 8.7887V22.039C6.34737 26.254 0 35.7377 0 46.4321C0 61.0725 11.9945 73 26.7674 73C41.5403 73 53.5348 61.0949 53.5348 46.4321C53.5348 35.7377 47.1874 26.254 37.3388 22.039ZM35.4414 40.715L27.7161 48.3827V43.0018L35.4414 35.3342V40.715ZM18.0934 35.3342L25.8187 43.0018V48.3827L18.0934 40.715V35.3342ZM35.4414 32.6662L27.7161 40.3338V34.953L35.4414 27.2853V32.6662ZM25.8187 40.3563L18.0934 32.6886V27.3077L25.8187 34.9754V40.3563ZM18.0934 43.3606L25.8187 51.0283V56.4091L18.0934 48.7414V43.3606ZM27.7161 51.0507L35.4414 43.383V48.7638L27.7161 56.4315V51.0507ZM35.4414 24.6397L27.7161 32.3074V26.9266L35.4414 19.2589V24.6397ZM25.8187 26.9266V32.3074L18.0934 24.6397V19.2589L25.8187 26.9266ZM1.89744 46.4321C1.89744 36.769 7.4768 28.1597 16.196 24.1017V49.145C16.196 49.2571 16.2186 49.3916 16.2637 49.5037C16.3089 49.6158 16.3767 49.7279 16.467 49.8176L25.8187 59.0995V71.1167C12.5366 70.6235 1.89744 59.7497 1.89744 46.4545V46.4321ZM27.7161 71.0943V59.0771L37.0678 49.7951C37.0678 49.7951 37.2259 49.5934 37.2711 49.4813C37.3162 49.3916 37.3162 49.2795 37.3388 49.1898C37.3388 49.1898 37.3388 49.145 37.3388 49.1225V24.0792C46.058 28.1373 51.6374 36.7466 51.6374 46.4097C51.6374 59.7049 40.9982 70.5786 27.7161 71.0719V71.0943Z" fill="#141313"/>
<path d="M70.4085 36.769C69.3468 36.769 68.3755 36.6121 67.4494 36.3206C66.5232 36.0292 65.7326 35.5359 65.0324 34.8633C64.3322 34.1907 63.8126 33.3163 63.406 32.2177C63.022 31.1192 62.8187 29.7964 62.8187 28.2045V26.5455C62.8187 24.9985 63.022 23.6757 63.406 22.5995C63.79 21.5009 64.3322 20.6265 65.0324 19.9315C65.7101 19.2589 66.5232 18.7432 67.4268 18.4518C68.3303 18.1379 69.3016 17.981 70.3407 17.981H70.7473C71.7186 17.981 72.6221 18.1155 73.5031 18.3845C74.3841 18.6536 75.1295 19.0795 75.7845 19.64C76.4396 20.223 76.9591 20.9628 77.3432 21.9045C77.7272 22.8461 77.9304 23.9671 77.9304 25.2899H74.7906C74.7906 24.0344 74.6099 23.0479 74.2485 22.3753C73.8871 21.7027 73.3676 21.2095 72.7351 20.9404C72.1026 20.6714 71.3572 20.5369 70.544 20.5369C69.9341 20.5369 69.3694 20.6265 68.8499 20.8059C68.3303 20.9853 67.8786 21.2767 67.5171 21.6803C67.1331 22.0838 66.8621 22.6443 66.6362 23.3169C66.4329 23.9896 66.3199 24.8415 66.3199 25.8504V28.8771C66.3199 30.2224 66.5007 31.2761 66.8621 32.0608C67.2235 32.8231 67.7204 33.3836 68.3529 33.7199C68.9854 34.0562 69.7082 34.2131 70.544 34.2131C71.425 34.2131 72.193 34.0786 72.8254 33.8096C73.4579 33.5405 73.9775 33.0473 74.3615 32.3747C74.7229 31.7021 74.9036 30.738 74.9036 29.4825H77.9304C77.9304 30.7604 77.7497 31.859 77.3657 32.7783C76.9817 33.6975 76.4848 34.4598 75.8297 35.0427C75.1746 35.6256 74.4292 36.074 73.5709 36.3431C72.7125 36.6121 71.809 36.769 70.8377 36.769H70.4311H70.4085Z" fill="#141313"/>
<path d="M81.2736 36.5V17.3307H84.3908V24.6846C84.8877 24.012 85.4976 23.4963 86.2204 23.16C86.9433 22.8237 87.7113 22.6443 88.5471 22.6443C89.4506 22.6443 90.2638 22.8237 90.964 23.1824C91.6643 23.5411 92.229 24.0568 92.6356 24.7294C93.0422 25.402 93.2455 26.254 93.2455 27.2405V36.5H90.1283V27.801C90.1283 26.7921 89.8798 26.0746 89.4054 25.6262C88.9311 25.2002 88.2534 24.976 87.4176 24.976C86.8529 24.976 86.356 25.1105 85.8816 25.3796C85.4073 25.6486 85.0458 26.0298 84.7748 26.4782C84.5037 26.949 84.3682 27.4647 84.3682 28.0476V36.4776H81.251L81.2736 36.5Z" fill="#141313"/>
<path d="M103.004 36.769C101.784 36.769 100.7 36.5 99.7284 35.9395C98.7571 35.379 98.0117 34.5942 97.4696 33.5629C96.9274 32.5316 96.6564 31.3209 96.6564 29.9084V29.46C96.6564 28.0476 96.9274 26.8145 97.4696 25.8055C98.0117 24.7742 98.7571 23.9895 99.7284 23.4514C100.677 22.8909 101.761 22.6219 102.981 22.6219H103.41C104.653 22.6219 105.737 22.8909 106.686 23.4514C107.634 24.0119 108.402 24.7966 108.945 25.8055C109.487 26.8369 109.758 28.0476 109.758 29.46V29.9084C109.758 31.2985 109.487 32.5316 108.945 33.5629C108.402 34.5942 107.657 35.379 106.686 35.9395C105.737 36.5 104.653 36.769 103.433 36.769H103.004ZM103.207 34.6615C103.84 34.6615 104.382 34.5046 104.879 34.2131C105.376 33.9216 105.76 33.4732 106.053 32.8903C106.347 32.3074 106.505 31.5899 106.505 30.7604V28.6081C106.505 27.7561 106.347 27.0387 106.053 26.4557C105.76 25.8728 105.353 25.4468 104.879 25.1554C104.382 24.8639 103.84 24.707 103.207 24.707C102.575 24.707 102.055 24.8639 101.558 25.1554C101.061 25.4468 100.677 25.8728 100.383 26.4557C100.09 27.0387 99.9317 27.7561 99.9317 28.6081V30.7604C99.9317 31.5899 100.09 32.3074 100.383 32.8903C100.677 33.4732 101.061 33.9216 101.558 34.2131C102.055 34.5046 102.597 34.6615 103.207 34.6615Z" fill="#141313"/>
<path d="M118.567 36.769C117.415 36.769 116.399 36.5 115.495 35.9395C114.592 35.379 113.869 34.5943 113.349 33.5854C112.83 32.5765 112.581 31.4106 112.581 30.0654V29.348C112.581 28.339 112.739 27.4198 113.056 26.6127C113.372 25.8056 113.824 25.0881 114.388 24.5052C114.953 23.9223 115.608 23.4515 116.354 23.1376C117.099 22.8237 117.912 22.6667 118.771 22.6667H119.177C120.329 22.6667 121.346 22.891 122.204 23.3618C123.062 23.8326 123.717 24.4604 124.192 25.3123C124.666 26.1419 124.892 27.1508 124.892 28.2942H122.136C122.136 27.5095 122.001 26.8593 121.752 26.3437C121.504 25.828 121.142 25.4244 120.691 25.1778C120.239 24.9312 119.697 24.7967 119.087 24.7967C118.161 24.7967 117.393 25.1105 116.76 25.7383C116.15 26.3661 115.834 27.3077 115.834 28.5632V30.8949C115.834 32.1505 116.128 33.1145 116.738 33.7647C117.347 34.4149 118.138 34.7288 119.109 34.7288C119.742 34.7288 120.307 34.6167 120.781 34.3701C121.255 34.1234 121.617 33.7647 121.888 33.2491C122.136 32.7334 122.272 32.0608 122.272 31.2312H124.892C124.892 32.4195 124.644 33.4284 124.124 34.2804C123.605 35.1323 122.904 35.7601 122.001 36.1861C121.097 36.6121 120.103 36.8363 118.974 36.8363H118.567V36.769Z" fill="#141313"/>
<path d="M133.837 36.769C132.617 36.769 131.533 36.5 130.562 35.9395C129.59 35.379 128.845 34.5942 128.303 33.5629C127.761 32.5316 127.49 31.3209 127.49 29.9084V29.46C127.49 28.0476 127.761 26.8145 128.303 25.8055C128.845 24.7742 129.59 23.9895 130.562 23.4514C131.51 22.8909 132.595 22.6219 133.814 22.6219H134.244C135.486 22.6219 136.57 22.8909 137.519 23.4514C138.468 24.0119 139.236 24.7966 139.778 25.8055C140.32 26.8369 140.591 28.0476 140.591 29.46V29.9084C140.591 31.2985 140.32 32.5316 139.778 33.5629C139.236 34.5942 138.49 35.379 137.519 35.9395C136.57 36.5 135.486 36.769 134.266 36.769H133.837ZM134.04 34.6615C134.673 34.6615 135.215 34.5046 135.712 34.2131C136.209 33.9216 136.593 33.4732 136.886 32.8903C137.18 32.3074 137.338 31.5899 137.338 30.7604V28.6081C137.338 27.7561 137.18 27.0387 136.886 26.4557C136.593 25.8728 136.186 25.4468 135.712 25.1554C135.215 24.8639 134.673 24.707 134.04 24.707C133.408 24.707 132.888 24.8639 132.391 25.1554C131.894 25.4468 131.51 25.8728 131.217 26.4557C130.923 27.0387 130.765 27.7561 130.765 28.6081V30.7604C130.765 31.5899 130.923 32.3074 131.217 32.8903C131.51 33.4732 131.894 33.9216 132.391 34.2131C132.888 34.5046 133.43 34.6615 134.04 34.6615Z" fill="#141313"/>
<path d="M70.4085 63.023C69.3468 63.023 68.3755 62.8661 67.4494 62.5746C66.5232 62.2831 65.7326 61.7899 65.0324 61.1173C64.3322 60.4447 63.8126 59.5703 63.406 58.4717C63.022 57.3731 62.8187 56.0503 62.8187 54.4585V52.7994C62.8187 51.2524 63.022 49.9296 63.406 48.8535C63.79 47.7549 64.3322 46.8805 65.0324 46.1855C65.7101 45.5129 66.5232 44.9972 67.4268 44.7057C68.3303 44.3919 69.3016 44.2349 70.3407 44.2349H70.7473C71.7186 44.2349 72.6221 44.3694 73.5031 44.6385C74.3841 44.9075 75.1295 45.3335 75.7845 45.894C76.4396 46.4769 76.9591 47.2168 77.3432 48.1584C77.7272 49.1001 77.9304 50.2211 77.9304 51.5439H74.7906C74.7906 50.2884 74.6099 49.3019 74.2485 48.6293C73.8871 47.9567 73.3676 47.4634 72.7351 47.1944C72.1026 46.9253 71.3572 46.7908 70.544 46.7908C69.9341 46.7908 69.3694 46.8805 68.8499 47.0599C68.3303 47.2392 67.8786 47.5307 67.5171 47.9342C67.1331 48.3378 66.8621 48.8983 66.6362 49.5709C66.4329 50.2435 66.3199 51.0955 66.3199 52.1044V55.1311C66.3199 56.4763 66.5007 57.5301 66.8621 58.3148C67.2235 59.0771 67.7204 59.6376 68.3529 59.9739C68.9854 60.3102 69.7082 60.4671 70.544 60.4671C71.425 60.4671 72.193 60.3326 72.8254 60.0636C73.4579 59.7945 73.9775 59.3013 74.3615 58.6287C74.7229 57.9561 74.9036 56.992 74.9036 55.7365H77.9304C77.9304 57.0144 77.7497 58.113 77.3657 59.0322C76.9817 59.9514 76.4848 60.7137 75.8297 61.2967C75.1746 61.8796 74.4292 62.328 73.5709 62.597C72.7125 62.8661 71.809 63.023 70.8377 63.023H70.4311H70.4085Z" fill="#141313"/>
<path d="M81.2736 62.7539V43.5847H84.3908V50.9385C84.8877 50.2659 85.4976 49.7503 86.2204 49.414C86.9433 49.0777 87.7113 48.8983 88.5471 48.8983C89.4506 48.8983 90.2638 49.0776 90.964 49.4364C91.6643 49.7951 92.229 50.3108 92.6356 50.9834C93.0422 51.656 93.2455 52.5079 93.2455 53.4944V62.7539H90.1283V54.0549C90.1283 53.046 89.8798 52.3286 89.4054 51.8802C88.9311 51.4542 88.2534 51.23 87.4176 51.23C86.8529 51.23 86.356 51.3645 85.8816 51.6335C85.4073 51.9026 85.0458 52.2837 84.7748 52.7321C84.5037 53.203 84.3682 53.7186 84.3682 54.3015V62.7315H81.251L81.2736 62.7539Z" fill="#141313"/>
<path d="M100.813 63.023C100.09 63.023 99.3669 62.9109 98.7119 62.6867C98.0342 62.4625 97.4921 62.0589 97.0629 61.4984C96.6337 60.9379 96.4078 60.1756 96.4078 59.234C96.4078 58.2923 96.6337 57.4628 97.0629 56.8574C97.4921 56.2521 98.1246 55.8037 98.9152 55.4674C99.7284 55.1535 100.677 54.9293 101.806 54.8172C102.936 54.7051 104.178 54.6379 105.556 54.6379V53.3599C105.556 52.4631 105.33 51.8578 104.879 51.4766C104.427 51.0955 103.727 50.9385 102.8 50.9385C102.032 50.9385 101.355 51.1179 100.767 51.4542C100.18 51.7905 99.8865 52.3286 99.8865 53.046V53.3151H96.8822C96.8822 53.3151 96.8596 53.1581 96.8596 53.0684V52.7994C96.8596 52.0147 97.1081 51.3421 97.605 50.7592C98.102 50.1762 98.7796 49.7278 99.6606 49.3915C100.542 49.0777 101.535 48.9207 102.665 48.9207H103.117C104.969 48.9207 106.369 49.2794 107.273 50.0193C108.176 50.7367 108.628 51.7681 108.628 53.0684V60.0187C108.628 60.355 108.719 60.6016 108.877 60.7361C109.035 60.8707 109.216 60.9603 109.419 60.9603C109.6 60.9603 109.78 60.9155 110.006 60.8482C110.209 60.781 110.413 60.6913 110.593 60.6016V62.4849C110.368 62.6643 110.074 62.7988 109.712 62.8885C109.351 62.9781 108.922 63.0454 108.425 63.0454C107.838 63.0454 107.341 62.9333 106.957 62.7315C106.573 62.5297 106.279 62.2383 106.076 61.8571C105.872 61.4984 105.759 61.0724 105.737 60.624C105.217 61.3863 104.54 61.9917 103.727 62.4176C102.913 62.8436 101.942 63.0454 100.835 63.0454L100.813 63.023ZM102.145 60.9155C102.71 60.9155 103.252 60.781 103.772 60.5344C104.291 60.2877 104.72 59.8842 105.059 59.3685C105.398 58.8528 105.579 58.2027 105.579 57.418V56.3866C104.336 56.3866 103.252 56.4539 102.371 56.5884C101.468 56.7229 100.79 56.9695 100.338 57.3283C99.8639 57.687 99.638 58.2251 99.638 58.9201C99.638 59.6151 99.8639 60.1308 100.293 60.4447C100.722 60.7586 101.355 60.9155 102.168 60.9155H102.145Z" fill="#141313"/>
<path d="M113.394 62.754V49.1449H115.721L116.128 51.1403C116.128 51.1403 116.263 50.9386 116.399 50.7144C116.534 50.4901 116.76 50.2211 117.076 49.9521C117.37 49.6606 117.754 49.414 118.228 49.2122C118.703 48.988 119.245 48.8983 119.922 48.8983C120.871 48.8983 121.639 49.0777 122.249 49.4588C122.859 49.84 123.288 50.3332 123.582 50.9834C123.875 51.6336 124.034 52.3734 124.034 53.203C124.034 53.4048 124.034 53.6065 124.011 53.8083C123.988 54.0101 123.966 54.1895 123.966 54.324H121.346V53.7859C121.346 53.4048 121.278 53.0236 121.142 52.6425C121.007 52.2613 120.758 51.925 120.419 51.656C120.081 51.387 119.606 51.2524 118.996 51.2524C118.545 51.2524 118.161 51.3421 117.867 51.5215C117.551 51.7008 117.302 51.9475 117.099 52.2165C116.896 52.508 116.76 52.7994 116.692 53.1357C116.602 53.472 116.579 53.7635 116.579 54.055V62.7315H113.462L113.394 62.754Z" fill="#141313"/>
<path d="M126.631 62.7539V49.1449H128.958L129.387 51.1403C129.862 50.4229 130.404 49.8848 131.059 49.4812C131.691 49.0777 132.459 48.8759 133.34 48.8759C134.221 48.8759 135.034 49.0552 135.735 49.3915C136.435 49.7278 136.977 50.3108 137.361 51.073C137.767 50.4004 138.332 49.8624 139.01 49.4588C139.688 49.0552 140.523 48.8535 141.472 48.8535C142.353 48.8535 143.121 49.0328 143.799 49.3915C144.476 49.7503 145.018 50.2659 145.402 50.9385C145.786 51.6111 145.99 52.4631 145.99 53.4496V62.7091H142.872V54.1222C142.872 53.0909 142.669 52.351 142.263 51.9026C141.856 51.4542 141.269 51.23 140.501 51.23C140.004 51.23 139.552 51.3645 139.168 51.6111C138.784 51.8578 138.468 52.2165 138.242 52.6873C138.016 53.1581 137.903 53.6738 137.903 54.2567V62.7091H134.786V54.1222C134.786 53.0909 134.583 52.351 134.153 51.9026C133.724 51.4542 133.137 51.23 132.369 51.23C131.872 51.23 131.42 51.3645 131.036 51.6111C130.652 51.8578 130.336 52.2165 130.11 52.6873C129.884 53.1581 129.771 53.6738 129.771 54.2567V62.7091H126.654L126.631 62.7539Z" fill="#141313"/>
</svg>
