<svg width="86" height="93" viewBox="0 0 86 93" fill="none" xmlns="http://www.w3.org/2000/svg">
<rect width="85.5348" height="93" rx="42.7674" fill="#682C0E"/>
<path d="M53.3388 32.039V18.7887C53.3388 18.273 52.9096 17.8471 52.3901 17.8471C51.8706 17.8471 51.4414 18.273 51.4414 18.7887V26.5685L43.7161 34.2362V10.9416C43.7161 10.426 43.2869 10 42.7674 10C42.2479 10 41.8187 10.426 41.8187 10.9416V34.2586L34.0934 26.5909V18.7887C34.0934 18.273 33.6642 17.8471 33.1447 17.8471C32.6252 17.8471 32.196 18.273 32.196 18.7887V32.039C22.3474 36.254 16 45.7377 16 56.4321C16 71.0725 27.9945 83 42.7674 83C57.5403 83 69.5348 71.0949 69.5348 56.4321C69.5348 45.7377 63.1874 36.254 53.3388 32.039ZM51.4414 50.715L43.7161 58.3827V53.0018L51.4414 45.3342V50.715ZM34.0934 45.3342L41.8187 53.0018V58.3827L34.0934 50.715V45.3342ZM51.4414 42.6662L43.7161 50.3338V44.953L51.4414 37.2853V42.6662ZM41.8187 50.3563L34.0934 42.6886V37.3077L41.8187 44.9754V50.3563ZM34.0934 53.3606L41.8187 61.0283V66.4091L34.0934 58.7414V53.3606ZM43.7161 61.0507L51.4414 53.383V58.7638L43.7161 66.4315V61.0507ZM51.4414 34.6397L43.7161 42.3074V36.9266L51.4414 29.2589V34.6397ZM41.8187 36.9266V42.3074L34.0934 34.6397V29.2589L41.8187 36.9266ZM17.8974 56.4321C17.8974 46.769 23.4768 38.1597 32.196 34.1017V59.145C32.196 59.2571 32.2186 59.3916 32.2637 59.5037C32.3089 59.6158 32.3767 59.7279 32.467 59.8176L41.8187 69.0995V81.1167C28.5366 80.6235 17.8974 69.7497 17.8974 56.4545V56.4321ZM43.7161 81.0943V69.0771L53.0678 59.7951C53.0678 59.7951 53.2259 59.5934 53.2711 59.4813C53.3162 59.3916 53.3162 59.2795 53.3388 59.1898C53.3388 59.1898 53.3388 59.145 53.3388 59.1225V34.0792C62.058 38.1373 67.6374 46.7466 67.6374 56.4097C67.6374 69.7049 56.9982 80.5786 43.7161 81.0719V81.0943Z" fill="#ECECED"/>
</svg>
